<?xml version="1.0" standalone="no"?>
<!DOCTYPE svg PUBLIC "-//W3C//DTD SVG 20010904//EN"
 "http://www.w3.org/TR/2001/REC-SVG-20010904/DTD/svg10.dtd">
<svg version="1.0" xmlns="http://www.w3.org/2000/svg"
 width="40" height="40" viewBox="0 0 600.000000 600.000000"
 preserveAspectRatio="xMidYMid meet">
<circle cx="300" cy="300" r="200" fill="#27489D"/> <!-- Add this line for the circle background -->

<g transform="translate(0.000000,600.000000) scale(0.100000,-0.100000)"
fill="white" stroke="none">
<path d="M2685 5410 c-552 -72 -1027 -303 -1409 -686 -390 -389 -626 -882
-686 -1432 -16 -144 -8 -491 15 -622 132 -775 611 -1419 1314 -1765 204 -101
468 -183 691 -215 213 -31 522 -29 728 5 384 65 749 223 1067 464 128 97 339
308 436 436 352 465 522 1018 488 1585 -14 245 -53 436 -131 653 -123 343
-309 638 -564 894 -353 352 -800 582 -1304 669 -111 19 -534 28 -645 14z m561
-681 c527 -87 996 -437 1243 -926 131 -260 197 -602 172 -889 -50 -552 -332
-1019 -798 -1317 -541 -347 -1252 -349 -1805 -6 -354 219 -607 547 -737 953
-99 309 -99 694 0 1002 87 271 217 491 408 688 397 408 951 590 1517 495z"/>
<path d="M2040 4154 c-135 -49 -219 -177 -208 -317 10 -116 24 -134 365 -477
l313 -316 -269 -264 c-147 -146 -289 -285 -316 -309 -70 -66 -89 -115 -89
-231 -1 -110 19 -162 85 -229 64 -64 120 -86 219 -85 139 0 139 0 500 359
l315 314 315 -313 c362 -359 364 -361 500 -360 101 0 154 20 216 83 61 60 86
120 92 216 5 109 -20 177 -90 243 -28 26 -172 166 -319 312 l-269 264 315 316
c359 361 359 361 359 500 1 99 -21 155 -85 219 -64 64 -120 86 -219 86 -136 0
-138 -2 -500 -361 l-315 -313 -315 313 c-243 241 -326 318 -365 336 -65 30
-172 37 -235 14z"/>
</g>
</svg>
