<svg width="141" height="122" viewBox="0 0 141 122" fill="none" xmlns="http://www.w3.org/2000/svg">
<path d="M16.0572 75C15.8406 77 16.1222 81 18.9807 81C21.8393 81 22.229 77 21.9042 75" stroke="white" stroke-width="2" stroke-linecap="round"/>
<path d="M9.03813 86C8.89376 87.3333 9.08144 90 10.9872 90C12.8929 90 13.1527 87.3333 12.9361 86" stroke="white" stroke-width="2" stroke-linecap="round"/>
<rect x="126.12" y="89" width="3.10098" height="28.6644" rx="1.55049" transform="rotate(36.6734 126.12 89)" fill="#1D1D1D"/>
<path d="M119 85C120.905 85.1529 126.523 86 124.608 86" stroke="#1D1D1D" stroke-width="2" stroke-linecap="round"/>
<path d="M126 78C126 79.2295 126.535 81.4505 128 82" stroke="#1D1D1D" stroke-width="2" stroke-linecap="round"/>
<path d="M133 81C133.995 80.8894 135.152 79.5655 136 79" stroke="#1D1D1D" stroke-width="2" stroke-linecap="round"/>
<path d="M135 85C136.717 85 138.331 85 140 85" stroke="#1D1D1D" stroke-width="2" stroke-linecap="round"/>
<path d="M133 90C133.594 91.5681 133.751 93.3376 134 95" stroke="#1D1D1D" stroke-width="2" stroke-linecap="round"/>
<ellipse cx="51" cy="105.5" rx="4" ry="1.5" stroke="black" stroke-width="2"/>
<path d="M20.8604 79.6845C21.1643 79.545 21.4826 78.1074 21.7611 77.5918C22.3972 76.4141 22.9724 74.5062 23.5843 73.0846C23.958 72.2166 24.3085 77.2838 24.5067 78.4325C24.7745 79.984 25.0829 80.0282 25.4595 80.6503" stroke="white" stroke-width="3" stroke-linecap="round"/>
<path d="M40.5781 80.8731C43.4554 80.5788 46.2865 79.8758 49.2268 79.6967C51.5302 79.5563 54.0212 79.5958 56.2854 80.025C57.2528 80.2083 57.8608 80.3806 58.886 80.3806C60.0931 80.3806 61.2295 81.1193 62.5119 81.1193" stroke="white" stroke-width="3" stroke-linecap="round"/>
<path d="M66.2559 81.3657C67.1772 81.2715 68.3611 80.1581 69.0793 79.6968C70.55 78.7523 72.0654 78.0063 73.6117 77.1798C74.5868 76.6586 76.8922 75.1521 78.0252 75.21C78.7277 75.2459 79.5217 76.3349 79.957 76.7421C81.199 77.9038 82.2494 79.227 83.6275 80.2577C84.4297 80.8577 85.0106 82.4643 85.2473 83.3356" stroke="white" stroke-width="3" stroke-linecap="round"/>
<path d="M14.7285 94.3458C15.6791 95.3303 15.0902 102.216 15.9125 103.3C17.5819 105.5 19.9543 106.437 22.7009 107.179C25.3685 107.899 27.8957 107.902 30.6334 107.653C31.9303 107.535 33.6566 107.141 34.9238 107.53" stroke="white" stroke-width="3" stroke-linecap="round"/>
<path d="M7.99707 74.085C7.99707 74.085 8.27328 73.7414 8.52133 73.4777C9.87713 72.0364 11.1731 70.5371 12.6075 69.1755C14.9117 66.9883 17.2592 64.8447 19.5925 62.6906C20.6918 61.6757 26.8008 68.449 27.5336 69.1439C27.9361 69.5256 31.9926 73.5851 32.9766 74.5849" stroke="black" stroke-width="3" stroke-linecap="round"/>
<path d="M42.9932 73.5851C43.6278 74.21 44.8886 75.0848 44.8886 77.5843" stroke="black" stroke-width="3" stroke-linecap="round"/>
<path d="M51.4902 73.0852C51.9901 74.085 51.9118 75.9208 51.6131 76.5845" stroke="black" stroke-width="3" stroke-linecap="round"/>
<path d="M57.9873 73.5851C58.5236 74.9131 58.7183 76.2019 58.9871 77.5843" stroke="black" stroke-width="3" stroke-linecap="round"/>
<path d="M67.9883 73.5851C70.5579 71.2108 73.4205 69.1982 75.9558 66.7828C76.8858 65.8967 81.3807 61.5457 82.5437 62.8187C85.8085 66.3923 87.9845 70.5857 90.984 74.5849" stroke="black" stroke-width="3" stroke-linecap="round"/>
<path d="M6.01278 85.0584C3.9914 89.2623 2.92302 94.4477 2.40291 99.0834C1.88923 103.662 1.40435 108.762 4.069 112.833C5.48815 115.002 6.68722 115.896 9.06727 116.943C12.3223 118.376 16.0014 118.653 19.4958 119.021C23.3773 119.43 27.3945 119.158 31.2972 119.158C35.9601 119.158 40.6583 119.013 45.2893 118.486C54.5432 117.435 64.2416 118.796 73.4894 119.372C80.5103 119.81 89.0471 120.099 94.007 114.071C95.6024 112.132 96.4823 110.531 96.4823 108.079C96.4823 103.914 96.0073 99.5139 95.7656 95.3556C94.9826 89.5821 94.7427 86.4968 92.3717 82.5834" stroke="black" stroke-width="3" stroke-linecap="round"/>
<ellipse cx="33.4927" cy="94.5811" rx="2.49953" ry="2.99944" fill="black"/>
<ellipse cx="66.4868" cy="94.5811" rx="2.49953" ry="2.99944" fill="black"/>
<path d="M50.9893 100.58V103.58" stroke="black" stroke-width="3"/>
<path d="M46.9912 98.5803C46.9912 99.2469 47.7591 100.58 50.8305 100.58C53.9019 100.58 54.9897 99.5801 54.9897 98.5803" stroke="black" stroke-width="3" stroke-linecap="round"/>
<circle cx="24.4824" cy="102.459" r="6" fill="#FDF1EB"/>
<ellipse cx="73.9824" cy="102.459" rx="6.5" ry="6" fill="#FDF1EB"/>
<path d="M40.02 60.1701C39.5245 61.2849 36.4228 61.6064 35.3208 62.1023C33.988 62.702 31.7551 63.32 31.0271 64.6547C30.684 65.2837 29.0894 66.2897 29.3812 67.04C29.9193 68.4238 31.8231 69.3039 33.0547 69.8548C38.5974 72.3344 45.8447 71.7631 51.8039 71.7631C55.7769 71.7631 59.7578 71.943 63.6354 70.9998C66.1773 70.3815 68.3151 69.7431 68.764 66.8254C68.9826 65.4044 69.4011 63.5505 68.2631 62.4124C67.2442 61.3935 65.9719 60.8782 64.7327 60.1701C64.2713 59.9065 61.4299 59.2094 61.584 58.882C61.8593 58.2968 62.6146 57.8943 63.0152 57.3792C63.7152 56.4792 63.4568 55.8255 63.8501 54.803C64.5941 52.8686 63.593 51.1298 61.9179 50.1992C59.8094 49.0278 60.421 44.2238 62.3473 43.0907C65.1675 41.4317 63.1282 37.4517 61.9179 35.6006C60.641 33.6477 61.2112 32.2227 61.5124 30.1142C61.8604 27.6782 61.9179 25.3163 61.9179 22.8149C61.9179 15.9275 55.048 11.0656 55.048 4.13725C55.048 3.29429 52.4718 6.56006 52.4718 7.7869C52.4718 9.56408 52.0424 11.4564 52.0424 13.3449C52.0424 16.871 49.3082 19.7689 48.5836 23.0296C48.1778 24.8557 48.6074 26.0904 48.6074 27.9673C48.6074 29.4989 47.2874 30.5755 46.2459 31.617C45.4185 32.4444 42.9184 34.274 43.5504 35.696C44.1716 37.0937 44.7431 38.2187 44.7431 39.775C44.7431 43.4789 41.0642 45.5175 40.4732 48.7679C40.2515 49.9876 40.2928 51.7672 40.7833 52.8708C41.1974 53.8025 40.02 56.0013 40.02 57.1645" stroke="#3F237B" stroke-width="7" stroke-linecap="round"/>
<path d="M53.5876 12.7416C53.5876 15.0886 53.4659 17.4504 53.8104 19.7756C54.0115 21.1329 54.3706 22.2806 54.6698 23.6268C54.9379 24.8336 54.9286 28.5517 55.0199 27.3189C55.2274 24.5176 56.5929 21.7807 56.1498 18.9003C56.0676 18.3662 54.9543 15.5953 55.7519 15.3674C57.539 14.8568 58.1537 21.1311 58.1709 21.9718C58.2256 24.6527 58.2689 27.2194 58.1709 29.8651C58.1341 30.8582 57.7388 29.6523 57.5821 29.2604C56.6532 26.9383 56.3688 24.3074 55.8952 21.8604C55.5991 20.3305 54.6474 23.4394 54.5106 23.8496C54.0574 25.2094 53.7757 26.6384 53.4603 28.035C53.4321 28.16 53.2031 29.827 53.0784 29.515C52.4267 27.8858 53.12 25.0934 53.2375 23.404C53.2977 22.5382 53.5607 21.1755 53.0306 20.3803C52.5243 19.6209 53.0519 22.2104 52.9511 23.1176C52.6525 25.8043 51.9374 28.4626 51.4233 31.1064C51.226 32.121 50.5853 36.2686 49.8637 33.3822C49.6376 32.4775 49.448 33.597 49.2908 33.9392C48.9179 34.7509 48.491 35.6066 48.2087 36.4536C47.7935 37.6992 49.7173 35.2542 49.7523 35.2123C50.7695 33.9966 51.9353 32.5777 53.2375 31.6475C54.8985 30.4611 54.6165 35.8764 55.3063 34.9895C55.994 34.1053 56.4347 32.7241 56.9614 31.7112C57.2316 31.1915 57.9734 34.2334 58.0117 34.4961C58.2341 36.0211 58.0459 36.624 58.4573 34.7985C58.5763 34.2704 58.8096 31.8093 58.9188 32.1249C59.5976 34.0859 59.6363 36.2779 59.6031 38.3314C59.5855 39.4239 59.0433 38.5378 58.7279 38.045C57.8984 36.749 57.7211 35.8591 57.5343 37.9813C57.4977 38.3974 56.8465 43.4449 56.102 42.7556C55.1704 41.893 54.6016 40.5525 53.7786 39.5727C52.794 38.4006 52.0206 42.1021 51.6461 42.9147C51.224 43.8304 49.8491 46.4052 50.9141 43.8695C51.4877 42.5038 52.0195 41.1478 52.41 39.716C52.4989 39.3898 53.2077 37.4831 52.967 37.122C52.5917 36.5591 52.42 38.3599 52.1235 38.968C51.1767 40.9101 50.0551 42.7417 48.9089 44.5698C48.4122 45.3619 47.2189 47.506 48.8293 45.6838C51.5628 42.5905 54.4075 39.4561 56.6431 35.9762C57.0919 35.2776 58.1117 32.9974 57.7571 33.7482C57.1003 35.139 56.6532 36.6438 56.102 38.0768C54.9259 41.1347 53.1279 44.0318 52.3145 47.2115C52.2755 47.3638 51.8124 49.5678 51.5824 49.2803C50.6835 48.1567 51.5227 45.1798 51.5665 43.8855C51.6087 42.6421 51.7728 40.1903 50.373 42.2463C49.1867 43.9886 47.9419 46.0889 47.1902 48.0709C47.1203 48.255 48.0356 46.8718 48.145 46.6227C48.3542 46.1463 49.1178 42.4578 49.0998 42.4691C48.3551 42.938 47.7841 44.3465 47.2856 45.0472C46.6785 45.9007 46.0347 46.7135 45.6306 47.6889C44.5412 50.3184 45.1715 48.542 44.6439 46.8932C44.5861 46.7125 43.8272 49.1228 43.7209 49.519C43.4857 50.3956 43.1329 51.3749 43.0047 52.2722C42.6851 54.5095 44.1118 57.2976 42.9252 59.4335C42.2035 60.7325 40.5612 62 39.2649 62.6482C37.9815 63.2899 35.7351 64.156 34.8408 65.3058C34.173 66.1644 35.2968 66.022 36.0185 66.022C40.9499 66.022 45.8833 67.3112 50.8186 66.8177C53.8067 66.5189 56.9156 65.7355 59.8896 65.7355C60.7639 65.7355 61.4597 65.4491 62.3245 65.4491C64.1333 65.4491 63.2067 66.4482 61.8948 67.1041C60.4941 67.8045 58.9553 67.7407 57.4388 67.7407C57.0606 67.7407 58.1508 67.4802 58.4892 67.311C59.3527 66.8793 60.2752 66.6733 61.0195 66.022C63.0315 64.2615 59.9521 62.4604 59.0302 61.2159C58.454 60.438 57.7185 59.9258 57.3433 58.9879C56.8295 57.7034 56.8445 56.2069 56.675 54.8503C56.3712 52.4203 57.2301 50.1193 57.0091 47.6889C56.9202 46.71 56.4635 45.7529 56.1657 44.8244C55.8658 43.8895 56.0566 43.1432 56.5795 44.4265C57.8001 47.4226 58.1211 50.7582 58.4732 53.9273C58.494 54.114 59.0228 54.756 59.253 54.5002C59.582 54.1346 59.3167 52.6286 59.3167 52.1608C59.3167 50.6546 59.1172 55.8688 58.2345 55.8688C57.6047 55.8688 55.7643 53.8261 55.2904 53.4021C54.176 52.4049 53.0635 51.3139 51.6461 50.7763C50.2956 50.264 48.3096 50.9936 47.3175 51.9857C46.4184 52.8848 42.109 63.2393 43.8482 63.4439C46.3363 63.7366 48.7762 63.3547 51.3278 63.0938C52.909 62.9321 54.008 63.2494 54.3038 61.5342C54.72 59.1197 54.0508 55.548 52.028 54.0068C51.7872 53.8233 51.0897 53.0119 50.7231 53.1952C49.465 53.8242 48.6204 55.8605 48.0813 57.0464C47.5412 58.2347 46.263 60.4334 46.474 61.8047C46.5795 62.4904 49.0919 61.1452 49.2908 61.0249C50.7148 60.1639 51.7379 58.9506 52.6964 57.6193C53.7408 56.1688 53.0631 58.6416 53.0306 59.2744C53.0113 59.6518 52.7186 61.7868 53.4285 61.6615C54.0701 61.5483 54.7575 60.8592 55.3063 61.4864C55.8807 62.1428 56.4522 63.1609 56.4522 64.0168" stroke="#3F237B" stroke-width="7" stroke-linecap="round"/>
<path d="M48.1447 40.2412C47.9452 39.0443 47.659 37.7936 47.4126 36.5968C47.0538 34.8541 48.1548 36.7166 48.5584 37.4085C49.2759 38.6384 49.4151 40.1423 50.7227 40.9414C51.4915 41.4112 52.3509 41.4572 53.1417 41.8167C54.4317 42.4031 56.2965 41.3684 57.7409 41.6894C58.3216 41.8184 59.8893 42.3915 59.8893 42.9943C59.8893 44.7872 58.9757 46.6508 58.5207 48.3574C57.8787 50.7647 57.0554 53.2616 57.0247 55.7733C56.998 57.9682 56.3498 60.556 58.8071 61.3751C60.5704 61.9628 62.2644 62.1097 63.836 63.1575C64.5338 63.6227 66.7435 64.5897 65.9048 64.5897" stroke="#3F237B" stroke-width="3" stroke-linecap="round"/>
<path d="M59.1869 35.4417C55.7887 35.7506 52.4036 36.463 48.9846 36.6909C48.5212 36.7218 47.6891 36.6331 48.36 36.9685C49.4288 37.503 50.4564 38.1399 51.5062 38.7113C53.1718 39.6179 54.7305 40.5643 56.3182 41.5954C57.2922 42.228 57.2889 42.2947 56.9505 41.1482C56.0852 38.2156 55.3201 34.9569 53.8351 32.2568C53.6662 31.9498 53.3815 31.8572 53.1488 31.6245C52.7563 31.2321 52.8196 31.6925 52.7709 32.0332C52.5178 33.8053 52.3625 35.6377 52.2543 37.4235C52.175 38.7309 52.3313 40.281 51.9689 41.5492C51.928 41.6925 51.6488 42.523 51.7839 42.3511C52.6661 41.2283 53.8083 40.1805 54.8839 39.2511C55.7961 38.4629 56.7361 37.8011 57.7911 37.2384C58.2115 37.0142 58.7095 36.7519 59.048 36.4133" stroke="#FFDA55" stroke-width="3" stroke-linecap="round"/>
<path d="M53.271 33.61C53.5699 33.9463 53.3888 34.8506 53.3888 35.2592C53.3888 35.8135 53.3245 36.4381 53.2121 36.9804C53.1125 37.4611 52.8761 38.024 52.8587 38.5118C52.8462 38.8629 52.8124 39.1128 53.0714 38.6623C53.7274 37.5215 53.6322 36.3156 53.788 35.0694C53.8406 34.6489 53.9207 34.1539 53.788 33.7409C53.7298 33.5598 53.5675 33.4488 53.4771 33.2861C53.3454 33.049 53.4564 33.4374 53.4739 33.5119C53.6963 34.4604 53.8188 35.4068 53.8862 36.3783C53.9145 36.7867 53.9189 37.1931 53.9189 37.6021C53.9189 37.8416 53.9426 37.4451 53.9483 37.4025C53.9653 37.2767 53.9173 36.2492 54.1283 36.326C54.4661 36.4488 54.5131 37.304 54.7435 37.6021C55.0069 37.9431 54.9679 38.3688 55.1689 38.7343C55.3274 39.0225 55.4823 39.2715 55.5975 39.5916C55.6917 39.8533 55.7541 40.1458 55.8299 40.4162C56.0296 41.1297 55.5401 40.0742 55.4372 39.9123C55.1238 39.4189 54.7028 38.9732 54.2854 38.5707C54.1042 38.396 53.9285 38.4398 53.6833 38.4398C53.5187 38.4398 53.518 38.4407 53.6277 38.5641C53.7918 38.7487 53.9136 38.9855 54.0236 39.2055C54.0729 39.3042 54.4464 39.9078 54.2919 39.7225C54.0469 39.4285 53.8242 39.1474 53.6244 38.8194C53.5212 38.65 53.3523 38.475 53.3953 38.2598C53.5381 37.546 54.9568 37.4978 55.4961 37.2029C55.8348 37.0177 56.1827 36.8354 56.4974 36.6139C56.7454 36.4394 57.0236 36.3984 57.3056 36.29C57.6965 36.1396 58.2393 36.0274 58.6538 35.966C58.8318 35.9397 59.3259 35.7254 59.174 35.822C58.8077 36.0551 58.2309 36.1782 57.8194 36.2932C57.1349 36.4846 56.4175 36.5015 55.7186 36.6139C54.941 36.7391 54.1063 36.7806 53.3168 36.7906C52.838 36.7967 52.3582 36.7648 51.8836 36.8364C51.5988 36.8794 51.2679 36.8162 51.0001 36.9379C50.9257 36.9717 50.7698 36.9768 50.8103 37.0982C50.8419 37.1931 50.9575 37.3531 51.0623 37.3763C51.2152 37.4103 51.407 37.3796 51.5629 37.3796" stroke="#FFDA55" stroke-width="3" stroke-linecap="round"/>
<path d="M49.8689 53.2412C48.3227 53.3818 46.7824 53.7059 45.2268 53.8096C45.0159 53.8237 44.6373 53.7833 44.9426 53.936C45.4289 54.1791 45.8965 54.4689 46.3742 54.7289C47.132 55.1414 47.8412 55.572 48.5636 56.0412C49.0068 56.329 49.0053 56.3594 48.8513 55.8377C48.4576 54.5034 48.1095 53.0206 47.4338 51.7921C47.357 51.6524 47.2274 51.6103 47.1215 51.5044C46.943 51.3258 46.9717 51.5353 46.9496 51.6904C46.8344 52.4966 46.7637 53.3304 46.7145 54.143C46.6785 54.7378 46.7495 55.4431 46.5847 56.0201C46.566 56.0854 46.439 56.4633 46.5005 56.3851C46.9019 55.8741 47.4216 55.3974 47.911 54.9745C48.3261 54.6159 48.7538 54.3148 49.2338 54.0588C49.4251 53.9567 49.6517 53.8374 49.8057 53.6833" stroke="#FFDA55" stroke-width="3" stroke-linecap="round"/>
<path d="M47.1773 52.4078C47.3133 52.5608 47.2309 52.9723 47.2309 53.1582C47.2309 53.4104 47.2017 53.6946 47.1505 53.9414C47.1052 54.1601 46.9976 54.4162 46.9897 54.6381C46.984 54.7979 46.9686 54.9116 47.0865 54.7066C47.385 54.1875 47.3417 53.6388 47.4126 53.0719C47.4365 52.8805 47.4729 52.6553 47.4126 52.4674C47.3861 52.385 47.3122 52.3345 47.2711 52.2604C47.2112 52.1525 47.2617 52.3293 47.2696 52.3632C47.3708 52.7947 47.4266 53.2253 47.4572 53.6674C47.4701 53.8532 47.4721 54.0381 47.4721 54.2242C47.4721 54.3332 47.4829 54.1528 47.4855 54.1334C47.4932 54.0762 47.4714 53.6087 47.5674 53.6436C47.7211 53.6995 47.7425 54.0886 47.8473 54.2242C47.9672 54.3794 47.9494 54.5731 48.0409 54.7394C48.113 54.8705 48.1835 54.9838 48.2359 55.1295C48.2788 55.2485 48.3071 55.3816 48.3416 55.5047C48.4325 55.8293 48.2097 55.3491 48.1629 55.2754C48.0204 55.0509 47.8288 54.8481 47.6389 54.6649C47.5564 54.5854 47.4765 54.6054 47.3649 54.6054C47.29 54.6054 47.2897 54.6058 47.3396 54.662C47.4143 54.746 47.4697 54.8537 47.5198 54.9538C47.5422 54.9987 47.7121 55.2733 47.6418 55.189C47.5303 55.0552 47.429 54.9274 47.3381 54.7781C47.2912 54.701 47.2143 54.6214 47.2339 54.5235C47.2989 54.1987 47.9444 54.1768 48.1897 54.0426C48.3439 53.9583 48.5021 53.8754 48.6453 53.7746C48.7582 53.6952 48.8848 53.6765 49.0131 53.6272C49.1909 53.5588 49.4379 53.5077 49.6265 53.4798C49.7075 53.4678 49.9323 53.3703 49.8632 53.4143C49.6966 53.5204 49.4341 53.5763 49.2468 53.6287C48.9354 53.7158 48.609 53.7234 48.291 53.7746C47.9371 53.8315 47.5574 53.8504 47.1982 53.855C46.9803 53.8578 46.762 53.8432 46.546 53.8758C46.4165 53.8954 46.2659 53.8666 46.144 53.922C46.1102 53.9374 46.0393 53.9397 46.0577 53.9949C46.0721 54.0381 46.1247 54.1109 46.1723 54.1215C46.2419 54.137 46.3292 54.123 46.4001 54.123" stroke="#FFDA55" stroke-width="3" stroke-linecap="round"/>
<path d="M61.2235 62.5535C58.962 62.7591 56.7091 63.2332 54.4337 63.3849C54.1253 63.4055 53.5715 63.3464 54.018 63.5697C54.7294 63.9254 55.4132 64.3492 56.1119 64.7295C57.2203 65.3329 58.2578 65.9627 59.3144 66.649C59.9626 67.07 59.9604 67.1144 59.7352 66.3513C59.1593 64.3997 58.6501 62.2309 57.6618 60.434C57.5494 60.2296 57.3599 60.168 57.2051 60.0131C56.9439 59.7519 56.986 60.0584 56.9536 60.2851C56.7851 61.4645 56.6818 62.684 56.6097 63.8725C56.557 64.7426 56.661 65.7742 56.4198 66.6182C56.3926 66.7136 56.2068 67.2663 56.2967 67.1519C56.8838 66.4046 57.6439 65.7073 58.3598 65.0888C58.9669 64.5642 59.5925 64.1238 60.2946 63.7493C60.5744 63.6001 60.9058 63.4255 61.1311 63.2002" stroke="#FFDA55" stroke-width="3" stroke-linecap="round"/>
<path d="M57.2866 61.3345C57.4855 61.5583 57.365 62.1601 57.365 62.4321C57.365 62.8009 57.3222 63.2166 57.2474 63.5775C57.181 63.8974 57.0238 64.2721 57.0122 64.5967C57.0038 64.8303 56.9813 64.9967 57.1537 64.6969C57.5903 63.9376 57.527 63.1351 57.6306 62.3058C57.6656 62.0259 57.719 61.6964 57.6306 61.4216C57.5919 61.3011 57.4839 61.2272 57.4238 61.1189C57.3361 60.9611 57.41 61.2196 57.4216 61.2692C57.5696 61.9004 57.6512 62.5303 57.696 63.1768C57.7148 63.4486 57.7177 63.7191 57.7177 63.9913C57.7177 64.1507 57.7335 63.8868 57.7373 63.8585C57.7487 63.7747 57.7167 63.0909 57.8571 63.142C58.0819 63.2237 58.1132 63.7929 58.2665 63.9913C58.4419 64.2182 58.4158 64.5016 58.5496 64.7448C58.6551 64.9366 58.7582 65.1023 58.8349 65.3153C58.8976 65.4895 58.9391 65.6841 58.9895 65.8641C59.1225 66.339 58.7967 65.6365 58.7282 65.5288C58.5197 65.2004 58.2395 64.9038 57.9616 64.6359C57.8411 64.5196 57.7241 64.5488 57.5609 64.5488C57.4514 64.5488 57.4509 64.5494 57.5239 64.6315C57.6331 64.7544 57.7142 64.912 57.7874 65.0584C57.8203 65.1241 58.0688 65.5258 57.966 65.4025C57.8029 65.2068 57.6547 65.0197 57.5218 64.8014C57.4531 64.6887 57.3407 64.5723 57.3693 64.429C57.4643 63.9539 58.4085 63.9219 58.7674 63.7256C58.9928 63.6023 59.2243 63.481 59.4338 63.3336C59.5988 63.2175 59.784 63.1902 59.9717 63.118C60.2318 63.018 60.5931 62.9433 60.8689 62.9024C60.9873 62.8849 61.3162 62.7423 61.2151 62.8066C60.9714 62.9618 60.5874 63.0437 60.3136 63.1202C59.8581 63.2476 59.3806 63.2588 58.9155 63.3336C58.3979 63.4169 57.8425 63.4446 57.317 63.4512C56.9984 63.4553 56.6791 63.434 56.3632 63.4817C56.1737 63.5103 55.9534 63.4682 55.7752 63.5492C55.7257 63.5717 55.622 63.5751 55.6489 63.6559C55.67 63.7191 55.7469 63.8256 55.8166 63.841C55.9184 63.8637 56.046 63.8432 56.1498 63.8432" stroke="#FFDA55" stroke-width="3" stroke-linecap="round"/>
</svg>
