<svg width="56" height="31" viewBox="0 0 56 31" fill="none" xmlns="http://www.w3.org/2000/svg">
<mask id="path-1-inside-1_75_697" fill="white">
<path fill-rule="evenodd" clip-rule="evenodd" d="M5.45996 0.741638C2.69854 0.741638 0.459961 2.98021 0.459961 5.74163V22.5516C0.459961 25.1646 2.46439 27.3095 5.01955 27.5325C4.72616 28.1268 4.73272 28.8699 5.17711 29.4945C5.9425 30.5702 7.54019 30.5702 8.30558 29.4945C8.74521 28.8766 8.75634 28.1427 8.47246 27.5516H51.0002C53.7616 27.5516 56.0002 25.313 56.0002 22.5516V5.74164C56.0002 2.98021 53.7616 0.741638 51.0002 0.741638H5.45996Z"/>
</mask>
<path fill-rule="evenodd" clip-rule="evenodd" d="M5.45996 0.741638C2.69854 0.741638 0.459961 2.98021 0.459961 5.74163V22.5516C0.459961 25.1646 2.46439 27.3095 5.01955 27.5325C4.72616 28.1268 4.73272 28.8699 5.17711 29.4945C5.9425 30.5702 7.54019 30.5702 8.30558 29.4945C8.74521 28.8766 8.75634 28.1427 8.47246 27.5516H51.0002C53.7616 27.5516 56.0002 25.313 56.0002 22.5516V5.74164C56.0002 2.98021 53.7616 0.741638 51.0002 0.741638H5.45996Z" fill="#FFE769"/>
<path d="M5.01955 27.5325L5.91624 27.9751L6.56378 26.6634L5.10649 26.5363L5.01955 27.5325ZM5.17711 29.4945L4.36231 30.0742L4.36231 30.0742L5.17711 29.4945ZM8.30558 29.4945L7.49077 28.9147H7.49077L8.30558 29.4945ZM8.47246 27.5516V26.5516H6.88281L7.57104 27.9846L8.47246 27.5516ZM1.45996 5.74163C1.45996 3.5325 3.25082 1.74164 5.45996 1.74164V-0.258362C2.14625 -0.258362 -0.540039 2.42792 -0.540039 5.74163H1.45996ZM1.45996 22.5516V5.74163H-0.540039V22.5516H1.45996ZM5.10649 26.5363C3.06342 26.358 1.45996 24.6415 1.45996 22.5516H-0.540039C-0.540039 25.6878 1.86537 28.261 4.93261 28.5287L5.10649 26.5363ZM5.99192 28.9147C5.77794 28.614 5.77222 28.2669 5.91624 27.9751L4.12286 27.0898C3.68011 27.9867 3.68751 29.1258 4.36231 30.0742L5.99192 28.9147ZM7.49077 28.9147C7.12407 29.4301 6.35862 29.4301 5.99192 28.9147L4.36231 30.0742C5.52639 31.7103 7.9563 31.7103 9.12039 30.0742L7.49077 28.9147ZM7.57104 27.9846C7.71019 28.2743 7.70265 28.6169 7.49077 28.9147L9.12039 30.0742C9.78777 29.1362 9.80249 28.0111 9.37388 27.1187L7.57104 27.9846ZM51.0002 26.5516H8.47246V28.5516H51.0002V26.5516ZM55.0002 22.5516C55.0002 24.7608 53.2093 26.5516 51.0002 26.5516V28.5516C54.3139 28.5516 57.0002 25.8653 57.0002 22.5516H55.0002ZM55.0002 5.74164V22.5516H57.0002V5.74164H55.0002ZM51.0002 1.74164C53.2093 1.74164 55.0002 3.5325 55.0002 5.74164H57.0002C57.0002 2.42793 54.3139 -0.258362 51.0002 -0.258362V1.74164ZM5.45996 1.74164H51.0002V-0.258362H5.45996V1.74164Z" fill="black" mask="url(#path-1-inside-1_75_697)"/>
<path d="M16.2398 10.5276C15.6275 10.5646 15.0374 10.7431 14.4406 10.8922C13.8099 11.0499 13.101 11.1044 12.6461 11.7028C12.007 12.5436 11.5498 13.2972 11.2384 14.386C10.9473 15.4035 11.1777 16.5979 11.5844 17.5397C12.1043 18.7435 13.035 19.5031 14.0573 20.0321C15.7218 20.8936 17.5469 21.2674 19.3506 21.1434C20.1386 21.0893 20.9082 20.9236 21.6895 20.8169C22.2415 20.7415 22.7899 20.5799 23.2792 20.2613C24.8879 19.2138 25.5852 16.8244 25.1057 14.7377C24.9228 13.9417 24.6851 13.1591 24.1705 12.5949C23.5491 11.9137 22.9062 11.4453 22.1379 11.0293C20.603 10.1981 19.3704 9.52265 16.2056 9.64518C12.9784 9.77012 14.4844 11.4435 13.651 12.7515C13.1635 13.5165 13.1686 14.2969 13.2334 15.2231C13.3388 16.727 14.1013 17.667 15.2809 18.1376C16.3936 18.5815 17.5414 18.6946 18.7004 18.809C19.7783 18.9154 20.8667 19.0403 21.9457 18.9193C22.8361 18.8195 23.9354 18.2159 24.1355 17.0722C24.7432 13.5969 22.0452 11.4846 19.5127 11.0277C17.6872 10.6983 14.3065 11.2823 14.629 14.2326C14.7005 14.8871 15.0059 15.3798 15.5006 15.6958C16.9819 16.6419 18.8617 16.9159 20.5006 17.1023C21.5723 17.2242 23.8012 17.408 23.739 15.4284C23.6941 14.001 22.3143 13.2004 21.3106 12.9601C20.3856 12.7386 18.3486 12.2571 17.9989 13.7851C17.9407 14.0393 17.8847 14.6291 18.152 14.7673C18.5912 14.9943 19.25 14.9426 19.697 14.8254C20.1351 14.7106 20.3635 14.4104 20.0843 13.9035C19.6237 13.0673 18.7741 12.8149 17.9866 12.7459C17.3353 12.6887 16.6773 12.7188 16.0282 12.7738C15.4295 12.8244 14.605 12.8159 14.073 13.2071C13.3676 13.7258 14.8175 14.641 15.1162 14.7668C16.8995 15.5182 18.8716 15.8138 20.749 15.8871C21.0159 15.8975 22.0211 16.0807 22.1746 15.6733C22.2861 15.3777 21.8006 15.0323 21.6463 14.8827C21.3769 14.6213 21.2476 14.4483 20.9022 14.4617C20.4611 14.4788 20.0239 14.4815 19.5828 14.4464" stroke="white" stroke-width="4" stroke-linecap="round"/>
<path d="M13.4125 10.7631C13.0072 10.6109 12.6397 10.3124 12.1933 10.3152C11.7475 10.318 11.243 10.254 10.8053 10.3208C10.0157 10.4414 9.18032 10.5924 8.69031 11.3035C8.58093 11.4622 8.12253 12.2675 8.57913 12.2498C9.48251 12.2148 10.5311 11.9888 11.3703 11.6329C11.6679 11.5067 11.9245 11.2694 12.2116 11.119" stroke="white" stroke-width="4" stroke-linecap="round"/>
<path d="M20.6512 9.49268C21.9164 9.31999 23.1745 8.61882 24.4274 9.25366C24.5405 9.31096 25.1802 9.68863 25.0538 9.91014C24.9352 10.118 24.3351 10.157 24.1423 10.1895C23.7355 10.2581 23.3411 10.193 22.9348 10.2088" stroke="white" stroke-width="4" stroke-linecap="round"/>
<path d="M34.4336 12.7537C34.5009 12.7228 34.5714 12.4043 34.6331 12.2901C34.7741 12.0292 34.9015 11.6066 35.037 11.2916C35.1198 11.0993 35.1975 12.2219 35.2414 12.4763C35.3007 12.82 35.369 12.8298 35.4524 12.9677" stroke="white" stroke-width="5" stroke-linecap="round"/>
<path d="M38.8018 13.017C39.4392 12.9518 40.0663 12.7961 40.7177 12.7564C41.2279 12.7253 41.7798 12.7341 42.2814 12.8291C42.4957 12.8697 42.6303 12.9079 42.8574 12.9079C43.1249 12.9079 43.3766 13.0715 43.6607 13.0715" stroke="white" stroke-width="5" stroke-linecap="round"/>
<path d="M44.4902 13.1261C44.6943 13.1052 44.9566 12.8586 45.1157 12.7564C45.4415 12.5472 45.7772 12.3819 46.1198 12.1988C46.3358 12.0834 46.8465 11.7496 47.0975 11.7624C47.2531 11.7704 47.429 12.0116 47.5254 12.1018C47.8006 12.3592 48.0332 12.6523 48.3385 12.8806C48.5162 13.0136 48.6449 13.3695 48.6974 13.5625" stroke="white" stroke-width="5" stroke-linecap="round"/>
<path d="M34.5356 12.9625C33.54 12.9964 33.5192 13.9293 33.3374 14.5989C33.2363 14.9711 33.0852 15.5543 33.232 15.9201C33.3489 16.2113 33.4682 16.4796 33.66 16.7383C33.9909 17.1846 34.2485 17.444 34.7397 17.7595C35.789 18.4334 37.1482 18.5898 38.3773 18.7717C39.5193 18.9406 40.6667 19.137 41.8306 19.0656C42.8942 19.0003 43.9846 18.7129 44.9909 18.4141C45.6534 18.2173 46.4593 18.1669 47.0582 17.8141C47.1957 17.7331 47.2239 17.5999 47.3018 17.4777C47.4592 17.2311 47.6605 17.0233 47.7956 16.7625C47.9561 16.4528 48.2588 16.2022 48.3289 15.8534C48.379 15.6044 48.367 15.3428 48.4145 15.0898C48.4586 14.8555 48.449 14.6854 48.4145 14.4473C48.3894 14.2742 48.2828 14.0539 48.2828 13.8898C48.2828 13.8001 48.3421 14.285 48.3421 14.3807C48.3421 14.7905 48.2143 15.0536 47.9866 15.4049C47.7055 15.8384 47.1087 16.0273 46.6434 16.2474C46.4012 16.362 45.9591 16.6444 45.6624 16.608C45.5719 16.5969 45.5061 16.1249 45.4946 16.0777C45.3723 15.5781 45.3076 15.0707 45.2016 14.5686C45.1451 14.3012 45.1222 14.0655 44.7802 14.0655C44.0953 14.0655 43.3744 14.2535 42.7129 14.3928C42.0261 14.5374 41.3653 14.7136 40.7245 14.9837C39.966 15.3034 39.3566 15.5173 38.5189 15.3868C37.949 15.298 36.7941 15.2155 36.4713 14.6807C36.1689 14.1795 36.0531 13.4499 35.2401 13.6776C34.7516 13.8145 34.3758 14.1676 34.3381 14.6534C34.2785 15.4215 35.5263 15.7905 36.1289 15.9322C38.404 16.4671 40.8847 16.6061 43.2264 16.6171C44.1558 16.6214 44.8987 16.3492 45.6493 15.8413C46.3366 15.3762 46.4848 14.857 46.7422 14.1322C46.7909 13.9951 46.843 13.8692 46.7422 13.7382C46.6352 13.5991 46.0293 14.1436 45.9126 14.217C45.2928 14.6074 44.6138 14.7668 43.865 14.817C42.6927 14.8957 41.5035 14.8489 40.3887 14.4898C39.8433 14.314 39.1907 14.3656 38.621 14.3837C38.0919 14.4005 37.4932 14.4531 36.9783 14.5716C36.6332 14.651 36.3843 14.9394 36.2902 15.2474C36.13 15.7719 36.6554 15.867 37.1034 15.9716C37.9596 16.1716 38.8352 16.3058 39.7106 16.411C39.996 16.4453 40.397 16.423 40.6653 16.5353C40.8809 16.6255 41.2006 16.5481 41.4224 16.511C42.1357 16.3916 40.0019 16.7988 39.2793 16.8534C38.7166 16.896 38.1439 16.8454 37.584 16.9019C37.4716 16.9133 37.3175 16.9576 37.4852 17.011C38.566 17.3554 39.7882 17.3687 40.9089 17.5868C41.2186 17.6471 41.533 17.6805 41.8438 17.7353C41.8957 17.7444 42.2393 17.7723 42.2717 17.8171C42.2718 17.8172 41.8602 18.097 41.8964 18.2232C41.9947 18.5648 42.5205 18.5913 42.8182 18.6353C43.228 18.6959 43.6144 18.7444 44.0296 18.7444C44.5937 18.7444 45.1784 18.7003 45.7415 18.7474C46.4366 18.8056 46.8452 18.7906 47.4236 18.4201C47.8967 18.1172 48.3005 17.8487 48.431 17.3201C48.4929 17.0693 48.4813 16.7895 48.5199 16.5322C48.5581 16.2771 48.6263 15.9987 48.5495 15.7443C48.4519 15.421 48.5612 14.9097 48.2828 14.6534" stroke="white" stroke-width="5" stroke-linecap="round"/>
<path d="M33.0752 16.0016C33.2858 16.2197 33.1553 17.745 33.3375 17.9851C33.7073 18.4725 34.2329 18.6802 34.8413 18.8445C35.4322 19.004 35.9921 19.0047 36.5986 18.9495C36.8859 18.9233 37.2683 18.8361 37.549 18.9222" stroke="white" stroke-width="5" stroke-linecap="round"/>
<path d="M13.2006 7.63721C12.207 7.63721 11.2879 7.71516 10.3212 7.85869C9.32451 8.00669 8.18407 8.42575 7.32178 8.96612C6.77745 9.30724 6.12088 10.0004 5.67002 10.6273C5.36852 11.0465 5.22705 11.5624 5.22705 12.0631C5.22705 13.2953 6.05531 13.6058 7.10968 13.7281C7.99563 13.7281 8.40999 13.6318 8.9773 13.1563C9.3405 12.8519 9.76314 12.4856 10.2274 12.3678" stroke="black" stroke-linecap="round"/>
<path d="M10.3214 12.3992C9.96359 12.6456 9.30512 13.4368 9.10317 13.8388C8.8808 14.2815 8.64883 14.7891 8.54945 15.2785C8.49028 15.5699 8.44659 15.7698 8.40533 16.0614C8.36406 16.3531 8.4012 16.6507 8.35645 16.9447C8.40534 17.7148 8.41427 18.3094 8.74373 18.8609C11.2334 23.0286 16.8504 22.4701 21.0091 22.4314C22.2877 22.4195 23.186 22.3418 24.3857 21.9231C25.2394 21.6251 26.631 21.0236 27.1907 20.2607C27.9829 19.1808 28.4968 17.2192 28.1533 15.9117C27.8972 14.9371 27.5396 13.8311 26.8899 13.0374C26.4588 12.5108 26.3594 12.3815 25.8254 11.9562C25.6193 11.7921 25.1609 11.5132 24.7429 11.2917" stroke="black" stroke-linecap="round"/>
<path d="M21.8384 7.61851C22.1706 7.52652 22.3921 7.30366 23.721 7.41578C24.6337 7.49278 24.6728 7.54536 24.938 7.61851C25.701 7.82896 26.4514 8.04753 27.1618 8.409C27.864 8.76626 28.8495 9.76279 28.9223 10.6052C28.9982 11.4827 27.8618 11.8469 27.1581 11.8469C26.7113 11.8469 26.3224 11.7748 25.8868 11.7164C25.5811 11.6754 24.8522 11.4152 24.607 11.2918" stroke="black" stroke-linecap="round"/>
<path d="M16.3013 7.19427C16.855 7.41576 17.457 8.02635 17.6302 8.52319" stroke="black" stroke-linecap="round"/>
<path d="M18.5161 7.41577C19.2913 7.52651 19.4021 8.30172 19.4021 8.5232" stroke="black" stroke-linecap="round"/>
<path d="M31.584 11.5133C31.584 11.5133 31.6452 11.4372 31.7001 11.3787C32.0005 11.0595 32.2876 10.7273 32.6053 10.4257C33.1158 9.94115 33.6358 9.46629 34.1527 8.98909C34.3962 8.76427 35.7495 10.2648 35.9119 10.4187C36.001 10.5032 36.8997 11.4025 37.1176 11.624" stroke="black" stroke-linecap="round"/>
<path d="M39.3364 11.4025C39.477 11.541 39.7563 11.7348 39.7563 12.2885" stroke="black" stroke-linecap="round"/>
<path d="M41.2188 11.2917C41.3295 11.5132 41.3121 11.9199 41.246 12.0669" stroke="black" stroke-linecap="round"/>
<path d="M42.6582 11.4025C42.777 11.6967 42.8201 11.9822 42.8797 12.2885" stroke="black" stroke-linecap="round"/>
<path d="M44.8735 11.4025C45.4428 10.8766 46.0769 10.4307 46.6386 9.89564C46.8446 9.69934 47.8403 8.73547 48.098 9.01747C48.8212 9.80912 49.3033 10.7381 49.9677 11.624" stroke="black" stroke-linecap="round"/>
<path d="M31.1443 13.9442C30.6965 14.8754 30.4598 16.0241 30.3446 17.0511C30.2308 18.0654 30.1234 19.1952 30.7137 20.0971C31.0281 20.5775 31.2937 20.7754 31.821 21.0075C32.542 21.3249 33.3571 21.3862 34.1312 21.4678C34.991 21.5584 35.881 21.4983 36.7455 21.4983C37.7785 21.4983 38.8192 21.4659 39.8451 21.3493C41.8951 21.1164 44.0436 21.418 46.0922 21.5456C47.6476 21.6425 49.5387 21.7067 50.6375 20.3712C50.9909 19.9417 51.1858 19.5869 51.1858 19.0438C51.1858 18.1211 51.0806 17.1464 51.027 16.2253C50.8536 14.9463 50.8004 14.2628 50.2752 13.3959" stroke="black" stroke-linecap="round"/>
<circle cx="16.5229" cy="13.8388" r="0.664458" fill="black"/>
<circle cx="21.6171" cy="13.8388" r="0.664458" fill="black"/>
<ellipse cx="20.1776" cy="17.1611" rx="2.99006" ry="1.10743" fill="black"/>
<ellipse cx="37.2319" cy="16.0537" rx="0.553715" ry="0.664458" fill="black"/>
<ellipse cx="44.541" cy="16.0537" rx="0.553715" ry="0.664458" fill="black"/>
<path d="M41.1079 17.3826V18.0471" stroke="black"/>
<path d="M40.4438 18.2686H41.7728" stroke="black" stroke-linecap="round"/>
<path d="M40.2222 16.9396C40.2222 17.0873 40.3923 17.3826 41.0727 17.3826C41.7531 17.3826 41.9941 17.1611 41.9941 16.9396" stroke="black" stroke-linecap="round"/>
</svg>
