<?xml version="1.0" standalone="no"?>
<!DOCTYPE svg PUBLIC "-//W3C//DTD SVG 20010904//EN"
 "http://www.w3.org/TR/2001/REC-SVG-20010904/DTD/svg10.dtd">
<svg version="1.0" xmlns="http://www.w3.org/2000/svg"
 width="24.000000pt" height="24.000000pt" viewBox="0 0 24.000000 24.000000"
 preserveAspectRatio="xMidYMid meet">

<g transform="translate(0.000000,24.000000) scale(0.100000,-0.100000)"
fill="#000000" stroke="none">
<path d="M70 223 c-95 -49 -83 -183 20 -214 53 -16 107 10 134 65 17 36 18 43
5 79 -25 71 -96 102 -159 70z m120 -38 c35 -36 34 -95 -3 -132 -60 -61 -162
-19 -162 66 0 89 101 130 165 66z"/>
<path d="M110 175 c0 -8 5 -15 10 -15 6 0 10 7 10 15 0 8 -4 15 -10 15 -5 0
-10 -7 -10 -15z"/>
<path d="M110 95 c0 -25 5 -45 10 -45 6 0 10 20 10 45 0 25 -4 45 -10 45 -5 0
-10 -20 -10 -45z"/>
</g>
</svg>
