<svg width="24" height="24" viewBox="0 0 24 24" fill="none" xmlns="http://www.w3.org/2000/svg">
<path d="M2.38606 8.21065C2.14247 8.4001 2 8.69141 2 9V20C2 20.7957 2.31607 21.5587 2.87868 22.1213C3.44129 22.6839 4.20435 23 5 23H19C19.7957 23 20.5587 22.6839 21.1213 22.1213C21.6839 21.5587 22 20.7957 22 20V9C22 8.69141 21.8575 8.4001 21.6139 8.21065L12.6139 1.21065C12.2528 0.929784 11.7472 0.929784 11.3861 1.21065L2.38606 8.21065Z" fill="white" stroke="black" stroke-width="2" stroke-linecap="round" stroke-linejoin="round"/>
<path fill-rule="evenodd" clip-rule="evenodd" d="M12 14C10.3431 14 9 15.3431 9 17V23H15V17C15 15.3431 13.6569 14 12 14Z" fill="white"/>
<path d="M9 23H8V24H9V23ZM15 23V24H16V23H15ZM10 17C10 15.8954 10.8954 15 12 15V13C9.79086 13 8 14.7909 8 17H10ZM10 23V17H8V23H10ZM9 24H15V22H9V24ZM14 17V23H16V17H14ZM12 15C13.1046 15 14 15.8954 14 17H16C16 14.7909 14.2091 13 12 13V15Z" fill="black"/>
</svg>
