<svg width="190" height="172" viewBox="0 0 190 172" fill="none" xmlns="http://www.w3.org/2000/svg">
<path d="M7.68 128.96C7.68 123.627 8.91733 119.083 11.392 115.328C13.9093 111.531 17.4933 109.632 22.144 109.632C25.344 109.632 28.096 111.061 30.4 113.92C32.7467 116.736 33.92 119.616 33.92 122.56C33.92 127.765 28.5013 131.584 17.664 134.016C17.024 134.144 16.6827 134.208 16.64 134.208C15.36 134.208 14.72 133.568 14.72 132.288C14.72 131.349 15.36 130.709 16.64 130.368C25.6 128.277 30.08 125.675 30.08 122.56C30.08 120.597 29.2907 118.592 27.712 116.544C26.1333 114.496 24.192 113.472 21.888 113.472C19.6267 113.472 17.664 114.24 16 115.776C13.0133 118.592 11.52 122.987 11.52 128.96C11.52 132.288 11.7547 136 12.224 140.096C12.6933 144.149 13.248 147.115 13.888 148.992C14.016 149.376 14.08 149.739 14.08 150.08C14.08 151.36 13.44 152 12.16 152C11.4773 152 10.9653 151.701 10.624 151.104C9.77067 149.355 9.06667 146.176 8.512 141.568C7.95733 136.96 7.68 132.757 7.68 128.96ZM33.28 142.912C33.28 139.413 34.4747 136.213 36.864 133.312C39.2533 130.411 41.8987 128.96 44.8 128.96C46.848 128.96 48.5333 129.536 49.856 130.688C51.1787 131.84 51.84 133.44 51.84 135.488C51.84 137.536 50.9867 139.456 49.28 141.248C47.616 143.04 45.824 144.363 43.904 145.216C41.984 146.069 40.384 146.496 39.104 146.496C40.64 147.605 42.9227 148.16 45.952 148.16C48.9813 148.16 51.968 147.669 54.912 146.688C55.808 146.389 56.32 146.24 56.448 146.24C57.728 146.24 58.368 146.88 58.368 148.16C58.368 149.099 57.728 149.781 56.448 150.208C52.864 151.403 49.408 152 46.08 152C43.4347 152 40.7893 151.467 38.144 150.4C36.6933 149.803 35.52 148.864 34.624 147.584C33.728 146.304 33.28 144.747 33.28 142.912ZM37.12 142.912C39.68 142.912 42.1333 142.101 44.48 140.48C46.8267 138.859 48 137.152 48 135.36C48 133.653 47.0187 132.8 45.056 132.8C43.0933 132.8 41.28 133.867 39.616 136C37.952 138.091 37.12 140.395 37.12 142.912ZM62.7765 127.296C62.7338 126.699 62.7125 125.76 62.7125 124.48C62.7125 119.872 63.1392 115.008 63.9925 109.888C64.2058 108.608 64.8458 107.968 65.9125 107.968C67.1925 107.968 67.8325 108.587 67.8325 109.824C67.8325 110.037 67.7898 110.4 67.7045 110.912C66.9365 115.52 66.5525 120.043 66.5525 124.48V126.592C72.1418 125.611 76.1952 125.12 78.7125 125.12C79.9925 125.12 80.6325 125.76 80.6325 127.04C80.6325 128.32 79.9925 128.96 78.7125 128.96C76.2378 128.96 72.2485 129.451 66.7445 130.432C67.6405 142.251 71.4165 148.16 78.0725 148.16C79.5658 148.16 81.4218 147.84 83.6405 147.2C85.8592 146.56 87.0325 146.24 87.1605 146.24C88.4405 146.24 89.0805 146.88 89.0805 148.16C89.0805 149.099 88.4405 149.781 87.1605 150.208C83.5765 151.403 80.5472 152 78.0725 152C74.1045 152 70.7552 150.379 68.0245 147.136C65.2938 143.893 63.6085 138.56 62.9685 131.136L61.4965 131.456C61.1125 131.499 60.8778 131.52 60.7925 131.52C59.5125 131.52 58.8725 130.88 58.8725 129.6C58.8725 128.576 59.5125 127.936 60.7925 127.68C61.6032 127.509 62.2645 127.381 62.7765 127.296ZM146.583 146.752C146.583 146.752 147.265 146.581 148.631 146.24C149.911 146.24 150.551 146.88 150.551 148.16C150.551 149.099 149.911 149.781 148.631 150.208C147.863 150.464 147.095 150.592 146.327 150.592C145.601 150.592 144.897 150.421 144.215 150.08C143.532 149.739 142.999 149.227 142.615 148.544C141.975 147.435 141.505 146.24 141.207 144.96L140.951 143.872C140.225 145.109 138.455 146.56 135.639 148.224C132.865 149.888 129.9 150.72 126.743 150.72C125.036 150.72 123.543 150.08 122.263 148.8C120.983 147.52 120.343 146.027 120.343 144.32C120.343 140.181 122.049 136.597 125.463 133.568C128.876 130.496 132.332 128.96 135.831 128.96C137.751 128.96 139.393 129.323 140.759 130.048C142.167 130.731 142.871 131.435 142.871 132.16C142.871 133.44 142.231 134.08 140.951 134.08C140.695 134.08 140.076 133.867 139.095 133.44C138.113 133.013 137.025 132.8 135.831 132.8C133.527 132.8 131.009 133.931 128.279 136.192C125.548 138.411 124.183 141.12 124.183 144.32C124.183 144.96 124.439 145.557 124.951 146.112C125.505 146.624 126.103 146.88 126.743 146.88C129.26 146.88 131.607 146.219 133.783 144.896C135.959 143.531 137.345 142.421 137.943 141.568C138.54 140.672 139.031 139.861 139.415 139.136C139.799 138.411 140.076 137.941 140.247 137.728C140.46 137.472 140.887 137.344 141.527 137.344C142.167 137.344 142.657 137.579 142.999 138.048C143.34 138.517 143.66 139.264 143.959 140.288C144.257 141.269 144.556 142.379 144.855 143.616C145.153 144.853 145.409 145.685 145.623 146.112C145.879 146.539 146.199 146.752 146.583 146.752ZM94.7425 128.96C94.7425 123.627 95.9798 119.083 98.4545 115.328C100.972 111.531 104.556 109.632 109.207 109.632C112.407 109.632 115.159 111.061 117.463 113.92C119.809 116.736 120.983 119.616 120.983 122.56C120.983 127.765 115.564 131.584 104.727 134.016C104.087 134.144 103.745 134.208 103.703 134.208C102.423 134.208 101.783 133.568 101.783 132.288C101.783 131.349 102.423 130.709 103.703 130.368C112.663 128.277 117.143 125.675 117.143 122.56C117.143 120.597 116.353 118.592 114.775 116.544C113.196 114.496 111.255 113.472 108.951 113.472C106.689 113.472 104.727 114.24 103.062 115.776C100.076 118.592 98.5825 122.987 98.5825 128.96C98.5825 132.288 98.8172 136 99.2865 140.096C99.7558 144.149 100.311 147.115 100.951 148.992C101.079 149.376 101.143 149.739 101.143 150.08C101.143 151.36 100.503 152 99.2225 152C98.5398 152 98.0278 151.701 97.6865 151.104C96.8332 149.355 96.1292 146.176 95.5745 141.568C95.0198 136.96 94.7425 132.757 94.7425 128.96ZM170.9 152C166.804 152 163.369 148.928 160.596 142.784C159.06 144.021 157.119 145.387 154.772 146.88C152.425 148.373 150.889 149.291 150.164 149.632C149.439 149.931 148.841 150.08 148.372 150.08C147.092 150.08 146.452 149.44 146.452 148.16C146.452 147.349 147.092 146.688 148.372 146.176C149.097 145.877 150.612 144.981 152.916 143.488C155.263 141.952 157.247 140.523 158.868 139.2C157.929 136.128 157.46 132.715 157.46 128.96C157.46 123.285 158.505 118.379 160.596 114.24C162.729 110.059 165.097 107.968 167.7 107.968C168.809 107.968 169.769 108.309 170.58 108.992C171.391 109.675 171.988 110.528 172.372 111.552C173.097 113.515 173.46 115.648 173.46 117.952C173.46 120.256 173.204 122.603 172.692 124.992C172.18 127.339 171.561 129.323 170.836 130.944C170.153 132.565 169.321 134.08 168.34 135.488C166.889 137.579 165.375 139.264 163.796 140.544C166.1 145.621 168.468 148.16 170.9 148.16C172.564 148.16 174.356 147.84 176.276 147.2C178.196 146.56 179.22 146.24 179.348 146.24C180.628 146.24 181.268 146.88 181.268 148.16C181.268 149.099 180.628 149.781 179.348 150.208C175.764 151.403 172.948 152 170.9 152ZM167.7 111.808C166.975 111.808 166.036 112.704 164.884 114.496C162.495 118.251 161.3 123.072 161.3 128.96C161.3 131.947 161.62 134.571 162.26 136.832C163.668 135.509 164.969 133.803 166.164 131.712C168.468 127.701 169.62 122.944 169.62 117.44C169.62 116.203 169.449 114.965 169.108 113.728C168.767 112.448 168.297 111.808 167.7 111.808Z" fill="black"/>
<mask id="path-2-inside-1_141_8077" fill="white">
<path fill-rule="evenodd" clip-rule="evenodd" d="M14.9641 0C12.2027 0 9.96411 2.23858 9.96411 5V74.8232C9.96411 77.5846 12.2027 79.8232 14.9641 79.8232H19.7837L26.8243 89.8291C27.6209 90.9612 29.299 90.9612 30.0956 89.8291L37.1362 79.8232H168.504C171.266 79.8232 173.504 77.5846 173.504 74.8232V5C173.504 2.23858 171.266 0 168.504 0H14.9641Z"/>
</mask>
<path fill-rule="evenodd" clip-rule="evenodd" d="M14.9641 0C12.2027 0 9.96411 2.23858 9.96411 5V74.8232C9.96411 77.5846 12.2027 79.8232 14.9641 79.8232H19.7837L26.8243 89.8291C27.6209 90.9612 29.299 90.9612 30.0956 89.8291L37.1362 79.8232H168.504C171.266 79.8232 173.504 77.5846 173.504 74.8232V5C173.504 2.23858 171.266 0 168.504 0H14.9641Z" fill="white"/>
<path d="M19.7837 79.8232L22.2372 78.0968L21.341 76.8232H19.7837V79.8232ZM26.8243 89.8291L24.3708 91.5555H24.3708L26.8243 89.8291ZM30.0956 89.8291L27.6421 88.1027H27.6421L30.0956 89.8291ZM37.1362 79.8232V76.8232H35.5789L34.6827 78.0968L37.1362 79.8232ZM12.9641 5C12.9641 3.89543 13.8595 3 14.9641 3V-3C10.5458 -3 6.96411 0.58172 6.96411 5H12.9641ZM12.9641 74.8232V5H6.96411V74.8232H12.9641ZM14.9641 76.8232C13.8595 76.8232 12.9641 75.9278 12.9641 74.8232H6.96411C6.96411 79.2415 10.5458 82.8232 14.9641 82.8232V76.8232ZM19.7837 76.8232H14.9641V82.8232H19.7837V76.8232ZM29.2778 88.1027L22.2372 78.0968L17.3302 81.5496L24.3708 91.5555L29.2778 88.1027ZM27.6421 88.1027C28.0404 87.5367 28.8795 87.5367 29.2778 88.1027L24.3708 91.5555C26.3623 94.3857 30.5576 94.3857 32.5491 91.5555L27.6421 88.1027ZM34.6827 78.0968L27.6421 88.1027L32.5491 91.5555L39.5897 81.5496L34.6827 78.0968ZM168.504 76.8232H37.1362V82.8232H168.504V76.8232ZM170.504 74.8232C170.504 75.9278 169.609 76.8232 168.504 76.8232V82.8232C172.923 82.8232 176.504 79.2415 176.504 74.8232H170.504ZM170.504 5V74.8232H176.504V5H170.504ZM168.504 3C169.609 3 170.504 3.89543 170.504 5H176.504C176.504 0.581718 172.923 -3 168.504 -3V3ZM14.9641 3H168.504V-3H14.9641V3Z" fill="black" mask="url(#path-2-inside-1_141_8077)"/>
<path d="M47.6046 20.7671C44.6935 20.7671 42.0003 20.9955 39.168 21.4161C36.2475 21.8497 32.906 23.0776 30.3794 24.6609C28.7845 25.6604 26.8607 27.6914 25.5396 29.5282C24.6562 30.7565 24.2417 32.2683 24.2417 33.7354C24.2417 37.3458 26.6685 38.2555 29.7579 38.6137C32.3538 38.6137 33.5679 38.3316 35.2302 36.9384C36.2944 36.0464 37.5327 34.9732 38.893 34.6282" stroke="black" stroke-width="3" stroke-linecap="round"/>
<path d="M39.1682 34.7198C38.1199 35.4419 36.1906 37.7601 35.5988 38.9381C34.9473 40.2352 34.2676 41.7226 33.9764 43.1564C33.803 44.0102 33.675 44.596 33.5541 45.4505C33.4332 46.305 33.542 47.1771 33.4109 48.0385C33.5541 50.2951 33.5803 52.0372 34.5457 53.6532C41.8404 65.8648 58.2987 64.2284 70.4841 64.115C74.2303 64.0802 76.8625 63.8524 80.3777 62.6255C82.8789 61.7525 86.9567 59.99 88.5965 57.7546C90.9176 54.5905 92.4236 48.8429 91.417 45.0118C90.6666 42.1561 89.6189 38.9153 87.7151 36.5897C86.4521 35.0469 86.1608 34.6679 84.596 33.4219C83.9923 32.9412 82.6491 32.1239 81.4243 31.475" stroke="black" stroke-width="3" stroke-linecap="round"/>
<path d="M72.9143 20.712C73.8878 20.4425 74.5367 19.7895 78.4305 20.1181C81.1047 20.3437 81.2195 20.4977 81.9965 20.712C84.2319 21.3287 86.4308 21.9691 88.5123 23.0282C90.5698 24.0751 93.4574 26.995 93.6707 29.4633C93.893 32.0345 90.5633 33.1015 88.5015 33.1015C87.1924 33.1015 86.0527 32.8902 84.7766 32.7191C83.8808 32.5989 81.745 31.8365 81.0264 31.475" stroke="black" stroke-width="3" stroke-linecap="round"/>
<path d="M56.6899 19.469C58.3124 20.118 60.0764 21.907 60.5838 23.3628" stroke="black" stroke-width="3" stroke-linecap="round"/>
<path d="M63.1799 20.118C65.4513 20.4425 65.7758 22.7139 65.7758 23.3629" stroke="black" stroke-width="3" stroke-linecap="round"/>
<path d="M101.469 32.1239C101.469 32.1239 101.649 31.9009 101.81 31.7297C102.69 30.7942 103.531 29.821 104.462 28.9372C105.957 27.5175 107.481 26.1261 108.996 24.7279C109.709 24.0691 113.675 28.4657 114.15 28.9167C114.411 29.1644 117.044 31.7994 117.683 32.4484" stroke="black" stroke-width="3" stroke-linecap="round"/>
<path d="M124.183 31.7996C124.595 32.2052 125.413 32.773 125.413 34.3954" stroke="black" stroke-width="3" stroke-linecap="round"/>
<path d="M129.699 31.475C130.024 32.1239 129.973 33.3155 129.779 33.7464" stroke="black" stroke-width="3" stroke-linecap="round"/>
<path d="M133.917 31.7996C134.265 32.6615 134.392 33.4981 134.566 34.3954" stroke="black" stroke-width="3" stroke-linecap="round"/>
<path d="M140.407 31.7994C142.075 30.2583 143.933 28.9519 145.579 27.3841C146.183 26.809 149.1 23.9848 149.855 24.811C151.974 27.1306 153.387 29.8525 155.334 32.4484" stroke="black" stroke-width="3" stroke-linecap="round"/>
<path d="M100.18 39.2468C98.8678 41.9755 98.1743 45.3413 97.8367 48.3503C97.5033 51.3222 97.1886 54.6325 98.9182 57.2753C99.8393 58.6828 100.618 59.2629 102.162 59.9429C104.275 60.8728 106.663 61.0526 108.932 61.2916C111.451 61.557 114.059 61.3808 116.592 61.3808C119.618 61.3808 122.668 61.2861 125.674 60.9445C131.681 60.2618 137.976 61.1458 143.978 61.5196C148.536 61.8035 154.077 61.9915 157.296 58.0786C158.332 56.8198 158.903 55.7805 158.903 54.189C158.903 51.4855 158.594 48.6297 158.438 45.9306C157.929 42.183 157.774 40.1805 156.235 37.6403" stroke="black" stroke-width="3" stroke-linecap="round"/>
<circle cx="57.339" cy="38.9381" r="1.94691" fill="black"/>
<circle cx="72.2653" cy="38.9381" r="1.94691" fill="black"/>
<ellipse cx="68.047" cy="48.6727" rx="8.76108" ry="3.24485" fill="black"/>
<ellipse cx="118.018" cy="45.4279" rx="1.62242" ry="1.94691" fill="black"/>
<ellipse cx="139.434" cy="45.4279" rx="1.62242" ry="1.94691" fill="black"/>
<path d="M129.375 49.3218V51.2687" stroke="black" stroke-width="2"/>
<path d="M127.428 51.9175H131.322" stroke="black" stroke-width="2" stroke-linecap="round"/>
<path d="M126.779 48.0237C126.779 48.4563 127.277 49.3216 129.271 49.3216C131.264 49.3216 131.971 48.6727 131.971 48.0237" stroke="black" stroke-width="2" stroke-linecap="round"/>
</svg>
