<svg width="148" height="148" viewBox="0 0 148 148" fill="none" xmlns="http://www.w3.org/2000/svg">
<circle cx="74.1837" cy="73.8341" r="72.6665" stroke="#DBDBDB" stroke-width="1.33333"/>
<path d="M32.2891 57.4014C32.2891 57.4014 32.5669 57.0557 32.8165 56.7904C34.1805 55.3404 35.4843 53.832 36.9273 52.4623C39.2455 50.2618 41.6071 48.1053 43.9545 45.9382C45.0604 44.9172 51.2062 51.7314 51.9434 52.4304C52.3484 52.8144 56.4294 56.8985 57.4194 57.9043" stroke="#DBDBDB" stroke-width="2.66666" stroke-linecap="round"/>
<path d="M67.4941 56.8983C68.1326 57.5269 69.401 58.4071 69.401 60.9217" stroke="#DBDBDB" stroke-width="2.66666" stroke-linecap="round"/>
<path d="M76.043 56.3953C76.5459 57.4012 76.4671 59.248 76.1666 59.9158" stroke="#DBDBDB" stroke-width="2.66666" stroke-linecap="round"/>
<path d="M82.5815 56.8983C83.1211 58.2343 83.317 59.5309 83.5874 60.9217" stroke="#DBDBDB" stroke-width="2.66666" stroke-linecap="round"/>
<path d="M92.6401 56.8985C95.2252 54.5098 98.1052 52.4851 100.656 50.0551C101.591 49.1637 106.113 44.7864 107.283 46.0671C110.568 49.6622 112.757 53.8809 115.775 57.9043" stroke="#DBDBDB" stroke-width="2.66666" stroke-linecap="round"/>
<path d="M30.2909 68.4409C28.2573 72.6702 27.1825 77.8869 26.6593 82.5506C26.1425 87.1568 25.6547 92.2875 28.3354 96.3836C29.7631 98.5651 30.9694 99.4642 33.3638 100.518C36.6385 101.959 40.3398 102.238 43.8552 102.608C47.7602 103.02 51.8017 102.747 55.7279 102.747C60.4189 102.747 65.1454 102.6 69.8044 102.07C79.1142 101.012 88.8711 102.382 98.1747 102.962C105.238 103.402 113.826 103.693 118.816 97.6286C120.421 95.6777 121.306 94.0668 121.306 91.6001C121.306 87.4099 120.828 82.9837 120.585 78.8003C119.798 72.9919 119.556 69.8881 117.171 65.951" stroke="#DBDBDB" stroke-width="2.66666" stroke-linecap="round"/>
<ellipse cx="57.9384" cy="78.0212" rx="2.51461" ry="3.01754" fill="#DBDBDB"/>
<ellipse cx="91.1313" cy="78.0212" rx="2.51461" ry="3.01754" fill="#DBDBDB"/>
<path d="M75.5405 84.0562V87.0738" stroke="#DBDBDB" stroke-width="2.66666"/>
<path d="M72.5229 88.0795H78.558" stroke="#DBDBDB" stroke-width="2.66666" stroke-linecap="round"/>
<path d="M71.5171 82.0446C71.5171 82.7151 72.2896 84.0562 75.3795 84.0562C78.4695 84.0562 79.5639 83.0504 79.5639 82.0446" stroke="#DBDBDB" stroke-width="2.66666" stroke-linecap="round"/>
</svg>
