<svg width="52" height="52" viewBox="0 0 52 52" fill="none" xmlns="http://www.w3.org/2000/svg">
<circle cx="26" cy="26" r="25" fill="white" stroke="#DBDBDB"/>
<path d="M11.7178 20.398C11.7178 20.398 11.8125 20.2801 11.8976 20.1897C12.3626 19.6954 12.8071 19.1811 13.299 18.7142C14.0893 17.964 14.8944 17.2288 15.6946 16.4901C16.0717 16.142 18.1668 18.465 18.4181 18.7033C18.5562 18.8342 19.9474 20.2265 20.2849 20.5694" stroke="#DBDBDB" stroke-linecap="round"/>
<path d="M23.7188 20.2266C23.9364 20.4409 24.3688 20.7409 24.3688 21.5982" stroke="#DBDBDB" stroke-linecap="round"/>
<path d="M26.6348 20.0552C26.8062 20.3981 26.7793 21.0277 26.6769 21.2553" stroke="#DBDBDB" stroke-linecap="round"/>
<path d="M28.8618 20.2266C29.0458 20.682 29.1125 21.124 29.2047 21.5982" stroke="#DBDBDB" stroke-linecap="round"/>
<path d="M32.292 20.2265C33.1733 19.4122 34.1551 18.722 35.0246 17.8936C35.3436 17.5897 36.8852 16.0974 37.284 16.534C38.4037 17.7596 39.15 19.1978 40.1788 20.5694" stroke="#DBDBDB" stroke-linecap="round"/>
<path d="M11.0364 24.1618C10.3431 25.6036 9.97672 27.3821 9.79834 28.972C9.62216 30.5423 9.45587 32.2914 10.3698 33.6878C10.8565 34.4315 11.2677 34.738 12.084 35.0973C13.2004 35.5886 14.4622 35.6836 15.6606 35.8099C16.9919 35.9501 18.3696 35.857 19.7081 35.857C21.3073 35.857 22.9187 35.807 24.507 35.6265C27.6807 35.2658 31.007 35.7328 34.1787 35.9304C36.5866 36.0804 39.5144 36.1797 41.2155 34.1122C41.7627 33.4471 42.0645 32.8979 42.0645 32.057C42.0645 30.6285 41.9015 29.1196 41.8187 27.6934C41.5501 25.7133 41.4678 24.6552 40.6547 23.313" stroke="#DBDBDB" stroke-linecap="round"/>
<ellipse cx="20.4622" cy="27.4276" rx="0.857257" ry="1.02871" fill="#DBDBDB"/>
<ellipse cx="31.7782" cy="27.4276" rx="0.857257" ry="1.02871" fill="#DBDBDB"/>
<path d="M26.4624 29.4849V30.5136" stroke="#DBDBDB"/>
<path d="M25.4331 30.8564H27.4905" stroke="#DBDBDB" stroke-linecap="round"/>
<path d="M25.0913 28.7993C25.0913 29.0279 25.3547 29.4851 26.4081 29.4851C27.4615 29.4851 27.8345 29.1422 27.8345 28.7993" stroke="#DBDBDB" stroke-linecap="round"/>
</svg>
