<svg width="52" height="52" viewBox="0 0 52 52" fill="none" xmlns="http://www.w3.org/2000/svg">
<circle cx="26" cy="26" r="25" fill="white" stroke="#DBDBDB"/>
<path d="M19.24 15.7202C17.7148 15.7202 16.3039 15.84 14.82 16.0606C13.29 16.288 11.5393 16.932 10.2156 17.7624C9.38 18.2866 8.37211 19.3518 7.68 20.3151C7.21717 20.9593 7 21.7522 7 22.5217C7 24.4152 8.27144 24.8923 9.89 25.0802C11.25 25.0802 11.8861 24.9322 12.7569 24.2015C13.3145 23.7337 13.9633 23.1709 14.6759 22.9899" stroke="#DBDBDB" stroke-linecap="round"/>
<path d="M14.5 23C13.9565 23.3807 13.4813 24.0739 13.1745 24.6951C12.8366 25.379 12.4842 26.1632 12.3333 26.9192C12.2434 27.3694 12.177 27.6782 12.1143 28.1288C12.0516 28.5793 12.108 29.0392 12.04 29.4934C12.1143 30.6832 12.1279 31.6017 12.6284 32.4538C16.4106 38.8925 24.944 38.0297 31.2619 37.9699C33.2043 37.9516 34.5691 37.8315 36.3916 37.1846C37.6885 36.7243 39.8027 35.795 40.653 34.6163C41.8564 32.948 42.6372 29.9175 42.1153 27.8975C41.7263 26.3918 40.153 23 39 22.5" stroke="#DBDBDB" stroke-linecap="round"/>
<path d="M32.2002 15.3769C32.7064 15.2285 33.0439 14.8688 35.0689 15.0498C36.4596 15.174 36.5193 15.2588 36.9234 15.3769C38.086 15.7165 39.2295 16.0692 40.312 16.6525C41.382 17.229 42.8837 18.837 42.9947 20.1964C43.1103 21.6124 41.3786 22.2 40.3064 22.2C39.6256 22.2 39.0329 22.0837 38.3692 21.9894C37.9034 21.9232 36.7927 21.5033 36.4189 21.3043" stroke="#DBDBDB" stroke-linecap="round"/>
<path d="M23.5601 15C24.4601 15.36 25.4386 16.3524 25.7201 17.16" stroke="#DBDBDB" stroke-linecap="round"/>
<path d="M27.1602 15C28.4202 15.216 28.6002 16.728 28.6002 17.16" stroke="#DBDBDB" stroke-linecap="round"/>
<circle cx="23.9198" cy="24.7201" r="1.08" fill="#DBDBDB"/>
<circle cx="31.8398" cy="24.7201" r="1.08" fill="#DBDBDB"/>
<ellipse cx="29.68" cy="29.76" rx="4.68" ry="1.8" fill="#DBDBDB"/>
</svg>
