<svg width="191" height="106" viewBox="0 0 191 106" fill="none" xmlns="http://www.w3.org/2000/svg">
<g filter="url(#filter0_d_0_1)">
<rect x="9" y="9" width="173" height="88" rx="10" fill="#F8F8F8"/>
<path d="M22.0512 34.534H33.7972V36.032H22.0512V34.534ZM26.9512 35.5H28.7992V40.26H26.9512V35.5ZM27.8892 27.716C30.6612 27.716 32.5792 28.864 32.5792 30.642C32.5792 32.406 30.6612 33.54 27.8892 33.54C25.1312 33.54 23.2132 32.406 23.2132 30.642C23.2132 28.864 25.1312 27.716 27.8892 27.716ZM27.8892 29.2C26.1952 29.2 25.1172 29.704 25.1172 30.642C25.1172 31.566 26.1952 32.07 27.8892 32.07C29.5972 32.07 30.6612 31.566 30.6612 30.642C30.6612 29.704 29.5972 29.2 27.8892 29.2ZM43.8621 27.268H45.7241V40.274H43.8621V27.268ZM35.6301 35.738H36.7781C39.0741 35.738 40.9081 35.654 42.9661 35.304L43.1481 36.802C41.0481 37.18 39.1441 37.25 36.7781 37.25H35.6301V35.738ZM35.6161 28.374H41.7341V33.386H37.5201V36.298H35.6301V31.916H39.8301V29.858H35.6161V28.374ZM51.0633 33.372H62.7953V34.856H51.0633V33.372ZM56.0053 31.426H57.8533V33.946H56.0053V31.426ZM52.4773 30.838H61.4653V32.308H52.4773V30.838ZM52.4773 27.842H61.3953V29.298H54.3253V31.776H52.4773V27.842ZM56.8873 35.5C59.6873 35.5 61.3813 36.354 61.3813 37.88C61.3813 39.406 59.6873 40.26 56.8873 40.26C54.0873 40.26 52.3793 39.406 52.3793 37.88C52.3793 36.354 54.0873 35.5 56.8873 35.5ZM56.8873 36.9C55.1513 36.9 54.2693 37.222 54.2693 37.88C54.2693 38.552 55.1513 38.846 56.8873 38.846C58.6233 38.846 59.5053 38.552 59.5053 37.88C59.5053 37.222 58.6233 36.9 56.8873 36.9ZM64.4182 28.514H66.2662V36.046H64.4182V28.514ZM64.4182 35.57H65.3282C66.8962 35.57 68.1982 35.514 69.6962 35.206L69.9342 36.76C68.3802 37.096 66.9802 37.152 65.3282 37.152H64.4182V35.57ZM73.3222 27.282H75.1002V40.246H73.3222V27.282ZM68.0302 31.37H70.9842V32.868H68.0302V31.37ZM70.5782 27.506H72.3142V39.672H70.5782V27.506ZM26.9792 50.936H28.8412V53.414H26.9792V50.936ZM23.5072 50.25H32.4112V51.706H23.5072V50.25ZM23.5072 47.716H32.2992V49.186H25.3552V51.034H23.5072V47.716ZM22.0512 52.532H33.7692V53.988H22.0512V52.532ZM23.3952 54.674H32.3552V58.006H25.2432V59.14H23.4092V56.718H30.5212V56.046H23.3952V54.674ZM23.4092 58.762H32.6912V60.162H23.4092V58.762ZM34.9441 57.236H46.6761V58.748H34.9441V57.236ZM39.8581 54.464H41.7201V57.6H39.8581V54.464ZM36.1761 48.108H38.0241V50.096H43.5541V48.108H45.4021V54.856H36.1761V48.108ZM38.0241 51.552V53.372H43.5541V51.552H38.0241ZM48.453 48.444H54.683V57.166H48.453V48.444ZM52.863 49.9H50.287V55.696H52.863V49.9ZM56.699 47.268H58.575V60.274H56.699V47.268Z" fill="black"/>
</g>
<circle cx="146" cy="62" r="24" fill="#FFE769"/>
<path d="M135.563 57.9497C135.669 57.9011 135.78 57.4009 135.877 57.2215C136.098 56.8116 136.298 56.1477 136.511 55.653C136.641 55.351 136.763 57.1143 136.832 57.514C136.926 58.0539 137.033 58.0693 137.164 58.2858" stroke="white" stroke-width="7" stroke-linecap="round"/>
<path d="M142.425 58.3632C143.427 58.2608 144.412 58.0162 145.435 57.9539C146.236 57.905 147.103 57.9188 147.891 58.0681C148.228 58.1319 148.439 58.1919 148.796 58.1919C149.216 58.1919 149.612 58.4489 150.058 58.4489" stroke="white" stroke-width="7" stroke-linecap="round"/>
<path d="M151.361 58.5346C151.681 58.5018 152.093 58.1144 152.343 57.9539C152.855 57.6252 153.382 57.3656 153.921 57.078C154.26 56.8966 155.062 56.3724 155.456 56.3925C155.701 56.405 155.977 56.784 156.129 56.9257C156.561 57.3299 156.926 57.7904 157.406 58.149C157.685 58.3578 157.887 58.9169 157.97 59.2201" stroke="white" stroke-width="7" stroke-linecap="round"/>
<path d="M135.724 58.2776C134.16 58.3309 134.127 59.7963 133.842 60.8481C133.683 61.4328 133.445 62.3489 133.676 62.9235C133.86 63.3809 134.047 63.8025 134.348 64.2088C134.868 64.9099 135.273 65.3174 136.044 65.813C137.693 66.8715 139.828 67.1173 141.759 67.4029C143.552 67.6683 145.355 67.9768 147.183 67.8646C148.854 67.7621 150.567 67.3106 152.147 66.8412C153.188 66.5321 154.454 66.453 155.395 65.8987C155.611 65.7715 155.655 65.5622 155.777 65.3703C156.025 64.9829 156.341 64.6565 156.553 64.2469C156.805 63.7603 157.281 63.3667 157.391 62.8188C157.47 62.4276 157.451 62.0167 157.525 61.6193C157.595 61.2512 157.579 60.9841 157.525 60.6101C157.486 60.3382 157.318 59.9921 157.318 59.7342C157.318 59.5933 157.412 60.355 157.412 60.5054C157.412 61.1491 157.211 61.5625 156.853 62.1143C156.412 62.7953 155.474 63.0919 154.743 63.4376C154.363 63.6177 153.668 64.0613 153.202 64.0041C153.06 63.9867 152.957 63.2452 152.939 63.1711C152.746 62.3863 152.645 61.5893 152.478 60.8005C152.39 60.3806 152.354 60.0103 151.816 60.0103C150.741 60.0103 149.608 60.3056 148.569 60.5244C147.49 60.7516 146.452 61.0284 145.446 61.4526C144.254 61.9548 143.297 62.2907 141.981 62.0858C141.086 61.9463 139.272 61.8168 138.764 60.9766C138.289 60.1894 138.108 59.0432 136.83 59.401C136.063 59.616 135.473 60.1707 135.414 60.9338C135.32 62.1404 137.28 62.72 138.227 62.9426C141.8 63.7828 145.697 64.0012 149.376 64.0184C150.836 64.0252 152.002 63.5976 153.182 62.7998C154.261 62.0692 154.494 61.2537 154.898 60.115C154.975 59.8998 155.057 59.702 154.898 59.4962C154.73 59.2777 153.778 60.1329 153.595 60.2483C152.622 60.8616 151.555 61.1119 150.379 61.1908C148.537 61.3144 146.669 61.2409 144.918 60.6767C144.061 60.4007 143.036 60.4817 142.141 60.5101C141.31 60.5365 140.37 60.6191 139.561 60.8053C139.019 60.93 138.628 61.3831 138.48 61.8668C138.228 62.6907 139.054 62.8401 139.757 63.0045C141.102 63.3186 142.478 63.5294 143.853 63.6947C144.301 63.7486 144.931 63.7136 145.352 63.8899C145.691 64.0316 146.193 63.9101 146.542 63.8518C147.662 63.6642 144.311 64.3039 143.175 64.3897C142.292 64.4565 141.392 64.377 140.512 64.4659C140.336 64.4837 140.094 64.5533 140.357 64.6372C142.055 65.1782 143.975 65.1991 145.735 65.5417C146.222 65.6363 146.716 65.6889 147.204 65.7749C147.285 65.7893 147.825 65.833 147.876 65.9034C147.876 65.9035 147.23 66.3432 147.286 66.5413C147.441 67.078 148.267 67.1195 148.734 67.1887C149.378 67.2839 149.985 67.3601 150.637 67.3601C151.523 67.3601 152.442 67.2908 153.326 67.3648C154.418 67.4562 155.06 67.4326 155.969 66.8507C156.712 66.3749 157.346 65.953 157.551 65.1228C157.648 64.7287 157.63 64.2892 157.691 63.8851C157.751 63.4843 157.858 63.047 157.737 62.6475C157.584 62.1395 157.756 61.3363 157.318 60.9338" stroke="white" stroke-width="7" stroke-linecap="round"/>
<path d="M133.43 63.0515C133.76 63.3941 133.556 65.7901 133.842 66.1673C134.423 66.933 135.248 67.2592 136.204 67.5172C137.132 67.7679 138.012 67.7689 138.964 67.6822C139.416 67.6411 140.016 67.5041 140.457 67.6394" stroke="white" stroke-width="7" stroke-linecap="round"/>
<path d="M131.087 56.0011C131.087 56.0011 131.183 55.8815 131.269 55.7897C131.741 55.2882 132.192 54.7664 132.691 54.2926C133.493 53.5315 134.31 52.7856 135.122 52.036C135.504 51.6828 137.63 54.0398 137.885 54.2816C138.025 54.4145 139.437 55.8271 139.779 56.175" stroke="black" stroke-width="2" stroke-linecap="round"/>
<path d="M143.265 55.8271C143.485 56.0446 143.924 56.349 143.924 57.2188" stroke="black" stroke-width="2" stroke-linecap="round"/>
<path d="M146.222 55.6533C146.396 56.0012 146.368 56.64 146.264 56.871" stroke="black" stroke-width="2" stroke-linecap="round"/>
<path d="M148.483 55.8271C148.67 56.2893 148.737 56.7378 148.831 57.2188" stroke="black" stroke-width="2" stroke-linecap="round"/>
<path d="M151.963 55.8271C152.857 55.0009 153.853 54.3005 154.735 53.46C155.059 53.1517 156.623 51.6376 157.028 52.0806C158.164 53.3241 158.921 54.7833 159.965 56.175" stroke="black" stroke-width="2" stroke-linecap="round"/>
<path d="M130.396 59.8198C129.693 61.2826 129.321 63.0871 129.14 64.7002C128.961 66.2935 128.793 68.0682 129.72 69.485C130.214 70.2396 130.631 70.5506 131.459 70.9152C132.592 71.4137 133.872 71.5101 135.088 71.6382C136.439 71.7805 137.837 71.686 139.195 71.686C140.818 71.686 142.452 71.6353 144.064 71.4521C147.284 71.0861 150.659 71.56 153.877 71.7605C156.32 71.9126 159.291 72.0134 161.017 69.9157C161.572 69.2409 161.878 68.6836 161.878 67.8304C161.878 66.381 161.713 64.85 161.629 63.403C161.356 61.3939 161.273 60.3203 160.448 58.9585" stroke="black" stroke-width="2" stroke-linecap="round"/>
<ellipse cx="139.959" cy="63.1334" rx="0.869797" ry="1.04376" fill="black"/>
<ellipse cx="151.441" cy="63.1334" rx="0.869797" ry="1.04376" fill="black"/>
<path d="M146.047 65.2209V66.2647" stroke="black"/>
<path d="M145.004 66.6127H147.092" stroke="black" stroke-linecap="round"/>
<path d="M144.656 64.5251C144.656 64.7571 144.923 65.221 145.992 65.221C147.061 65.221 147.44 64.8731 147.44 64.5251" stroke="black" stroke-linecap="round"/>
<defs>
<filter id="filter0_d_0_1" x="0" y="0" width="191" height="106" filterUnits="userSpaceOnUse" color-interpolation-filters="sRGB">
<feFlood flood-opacity="0" result="BackgroundImageFix"/>
<feColorMatrix in="SourceAlpha" type="matrix" values="0 0 0 0 0 0 0 0 0 0 0 0 0 0 0 0 0 0 127 0" result="hardAlpha"/>
<feOffset/>
<feGaussianBlur stdDeviation="4.5"/>
<feComposite in2="hardAlpha" operator="out"/>
<feColorMatrix type="matrix" values="0 0 0 0 0 0 0 0 0 0 0 0 0 0 0 0 0 0 0.09 0"/>
<feBlend mode="normal" in2="BackgroundImageFix" result="effect1_dropShadow_0_1"/>
<feBlend mode="normal" in="SourceGraphic" in2="effect1_dropShadow_0_1" result="shape"/>
</filter>
</defs>
</svg>
