<svg width="191" height="106" viewBox="0 0 191 106" fill="none" xmlns="http://www.w3.org/2000/svg">
<g filter="url(#filter0_d_0_1)">
<rect x="9" y="9" width="173" height="88" rx="10" fill="#F8F8F8"/>
<path d="M22.0512 34.534H33.7972V36.032H22.0512V34.534ZM26.9512 35.5H28.7992V40.26H26.9512V35.5ZM27.8892 27.716C30.6612 27.716 32.5792 28.864 32.5792 30.642C32.5792 32.406 30.6612 33.54 27.8892 33.54C25.1312 33.54 23.2132 32.406 23.2132 30.642C23.2132 28.864 25.1312 27.716 27.8892 27.716ZM27.8892 29.2C26.1952 29.2 25.1172 29.704 25.1172 30.642C25.1172 31.566 26.1952 32.07 27.8892 32.07C29.5972 32.07 30.6612 31.566 30.6612 30.642C30.6612 29.704 29.5972 29.2 27.8892 29.2ZM43.8621 27.268H45.7241V40.274H43.8621V27.268ZM35.6301 35.738H36.7781C39.0741 35.738 40.9081 35.654 42.9661 35.304L43.1481 36.802C41.0481 37.18 39.1441 37.25 36.7781 37.25H35.6301V35.738ZM35.6161 28.374H41.7341V33.386H37.5201V36.298H35.6301V31.916H39.8301V29.858H35.6161V28.374ZM51.0633 33.372H62.7953V34.856H51.0633V33.372ZM56.0053 31.426H57.8533V33.946H56.0053V31.426ZM52.4773 30.838H61.4653V32.308H52.4773V30.838ZM52.4773 27.842H61.3953V29.298H54.3253V31.776H52.4773V27.842ZM56.8873 35.5C59.6873 35.5 61.3813 36.354 61.3813 37.88C61.3813 39.406 59.6873 40.26 56.8873 40.26C54.0873 40.26 52.3793 39.406 52.3793 37.88C52.3793 36.354 54.0873 35.5 56.8873 35.5ZM56.8873 36.9C55.1513 36.9 54.2693 37.222 54.2693 37.88C54.2693 38.552 55.1513 38.846 56.8873 38.846C58.6233 38.846 59.5053 38.552 59.5053 37.88C59.5053 37.222 58.6233 36.9 56.8873 36.9ZM64.4182 28.514H66.2662V36.046H64.4182V28.514ZM64.4182 35.57H65.3282C66.8962 35.57 68.1982 35.514 69.6962 35.206L69.9342 36.76C68.3802 37.096 66.9802 37.152 65.3282 37.152H64.4182V35.57ZM73.3222 27.282H75.1002V40.246H73.3222V27.282ZM68.0302 31.37H70.9842V32.868H68.0302V31.37ZM70.5782 27.506H72.3142V39.672H70.5782V27.506ZM24.9632 48.08H26.4892V49.48C26.4892 52.056 25.3272 54.268 22.8492 55.122L21.8552 53.666C24.0532 52.966 24.9632 51.23 24.9632 49.48V48.08ZM25.3272 48.08H26.8392V49.494C26.8392 51.118 27.7212 52.742 29.8072 53.428L28.8552 54.87C26.4472 54.072 25.3272 51.93 25.3272 49.494V48.08ZM30.3952 47.282H32.2572V56.76H30.3952V47.282ZM31.7252 51.034H33.9792V52.574H31.7252V51.034ZM23.8992 58.538H32.7192V60.022H23.8992V58.538ZM23.8992 55.864H25.7752V59.322H23.8992V55.864ZM37.2541 49.83H38.6401V50.236C38.6401 52.308 37.8001 54.17 35.7701 54.926L34.9161 53.554C36.5541 52.952 37.2541 51.622 37.2541 50.236V49.83ZM37.6321 49.83H39.0041V50.236C39.0041 51.538 39.7181 52.784 41.3421 53.344L40.5161 54.716C38.4721 54.016 37.6321 52.224 37.6321 50.236V49.83ZM35.2801 48.738H40.9641V50.194H35.2801V48.738ZM37.2541 47.408H39.0041V49.41H37.2541V47.408ZM44.2121 47.296H45.9761V55.234H44.2121V47.296ZM42.6581 50.53H44.7161V52.014H42.6581V50.53ZM41.5101 47.492H43.2461V55.178H41.5101V47.492ZM37.0721 55.78H45.9761V60.246H44.1281V57.264H37.0721V55.78ZM51.4133 48.612H56.5373V57.012H51.4133V48.612ZM54.8013 50.068H53.1493V55.556H54.8013V50.068ZM60.4153 47.282H62.1933V60.246H60.4153V47.282ZM55.5993 51.986H58.5113V53.484H55.5993V51.986ZM57.7693 47.478H59.5193V59.658H57.7693V47.478ZM72.8182 47.268H74.6942V60.274H72.8182V47.268ZM67.7082 48.178C69.6682 48.178 71.1102 49.97 71.1102 52.798C71.1102 55.654 69.6682 57.446 67.7082 57.446C65.7482 57.446 64.3062 55.654 64.3062 52.798C64.3062 49.97 65.7482 48.178 67.7082 48.178ZM67.7082 49.872C66.7422 49.872 66.0842 50.894 66.0842 52.798C66.0842 54.73 66.7422 55.766 67.7082 55.766C68.6742 55.766 69.3182 54.73 69.3182 52.798C69.3182 50.894 68.6742 49.872 67.7082 49.872ZM78.1931 53.96H87.3071V55.416H78.1931V53.96ZM76.8211 57.25H88.5531V58.762H76.8211V57.25ZM78.1931 48.22H87.1951V49.718H80.0831V54.366H78.1931V48.22ZM79.5091 51.076H86.9011V52.518H79.5091V51.076Z" fill="black"/>
</g>
<circle cx="146" cy="62" r="24" fill="#FFE769"/>
<path d="M143.638 56.4062C142.752 56.4596 141.898 56.718 141.034 56.9339C140.121 57.162 139.095 57.2409 138.437 58.1071C137.512 59.324 136.85 60.4148 136.399 61.9907C135.978 63.4634 136.312 65.1922 136.9 66.5553C137.653 68.2977 139 69.397 140.479 70.1628C142.889 71.4097 145.53 71.9507 148.141 71.7712C149.281 71.6928 150.395 71.4531 151.526 71.2987C152.325 71.1896 153.119 70.9557 153.827 70.4945C156.155 68.9783 157.165 65.52 156.471 62.4997C156.206 61.3476 155.862 60.2149 155.117 59.3984C154.218 58.4123 153.287 57.7345 152.175 57.1323C149.954 55.9292 148.169 54.9516 143.589 55.1289C138.918 55.3098 141.098 57.7317 139.891 59.625C139.186 60.7321 139.193 61.8617 139.287 63.2024C139.439 65.379 140.543 66.7396 142.25 67.4207C143.861 68.0632 145.522 68.2268 147.2 68.3924C148.76 68.5465 150.335 68.7272 151.897 68.5521C153.186 68.4076 154.777 67.5341 155.066 65.8786C155.946 60.8486 152.041 57.7913 148.375 57.1299C145.733 56.6532 140.84 57.4984 141.307 61.7687C141.41 62.716 141.852 63.4291 142.568 63.8864C144.712 65.2559 147.433 65.6524 149.805 65.9222C151.356 66.0987 154.583 66.3647 154.492 63.4995C154.428 61.4334 152.43 60.2746 150.978 59.9268C149.639 59.6063 146.69 58.9094 146.184 61.121C146.1 61.4888 146.019 62.3426 146.406 62.5425C147.042 62.8711 147.995 62.7963 148.642 62.6267C149.276 62.4605 149.607 62.026 149.203 61.2923C148.536 60.082 147.306 59.7168 146.167 59.6168C145.224 59.5341 144.272 59.5776 143.332 59.6572C142.465 59.7305 141.272 59.7181 140.502 60.2844C139.481 61.0351 141.58 62.3597 142.012 62.5419C144.593 63.6294 147.448 64.0572 150.165 64.1633C150.551 64.1784 152.006 64.4435 152.228 63.854C152.39 63.4261 151.687 62.9261 151.464 62.7096C151.074 62.3313 150.886 62.0809 150.387 62.1002C149.748 62.125 149.115 62.1289 148.477 62.0781" stroke="white" stroke-width="5" stroke-linecap="round"/>
<path d="M139.547 56.7469C138.96 56.5266 138.428 56.0946 137.782 56.0986C137.137 56.1027 136.407 56.01 135.773 56.1068C134.63 56.2812 133.421 56.4998 132.712 57.529C132.554 57.7588 131.89 58.9243 132.551 58.8987C133.858 58.8481 135.376 58.521 136.591 58.0058C137.021 57.8231 137.393 57.4797 137.808 57.262" stroke="white" stroke-width="5" stroke-linecap="round"/>
<path d="M150.023 54.9081C151.855 54.6582 153.676 53.6433 155.489 54.5621C155.653 54.6451 156.578 55.1917 156.396 55.5123C156.224 55.8132 155.355 55.8696 155.076 55.9167C154.488 56.016 153.917 55.9218 153.329 55.9445" stroke="white" stroke-width="5" stroke-linecap="round"/>
<path d="M139.239 52.2225C137.801 52.2225 136.471 52.3354 135.072 52.5431C133.629 52.7573 131.979 53.3639 130.731 54.146C129.943 54.6397 128.992 55.643 128.34 56.5503C127.903 57.157 127.699 57.9038 127.699 58.6285C127.699 60.412 128.898 60.8614 130.424 61.0383C131.706 61.0383 132.306 60.899 133.127 60.2107C133.652 59.7701 134.264 59.24 134.936 59.0696" stroke="black" stroke-width="2" stroke-linecap="round"/>
<path d="M135.072 59.115C134.555 59.4716 133.602 60.6168 133.309 61.1987C132.987 61.8394 132.652 62.5741 132.508 63.2824C132.422 63.7042 132.359 63.9935 132.299 64.4156C132.24 64.8377 132.293 65.2685 132.229 65.694C132.299 66.8087 132.312 67.6693 132.789 68.4676C136.392 74.4998 144.522 73.6914 150.542 73.6354C152.392 73.6182 153.693 73.5057 155.429 72.8997C156.664 72.4684 158.679 71.5978 159.489 70.4935C160.635 68.9306 161.379 66.0914 160.882 64.1989C160.511 62.7883 159.994 61.1874 159.053 60.0387C158.43 59.2765 158.286 59.0893 157.513 58.4738C157.214 58.2363 156.551 57.8327 155.946 57.5121" stroke="black" stroke-width="2" stroke-linecap="round"/>
<path d="M151.742 52.1955C152.223 52.0623 152.543 51.7398 154.467 51.902C155.788 52.0135 155.844 52.0896 156.228 52.1955C157.332 52.5001 158.418 52.8164 159.447 53.3396C160.463 53.8567 161.889 55.2991 161.995 56.5184C162.105 57.7885 160.46 58.3155 159.441 58.3155C158.795 58.3155 158.232 58.2112 157.601 58.1266C157.159 58.0673 156.104 57.6907 155.749 57.5121" stroke="black" stroke-width="2" stroke-linecap="round"/>
<path d="M143.728 51.5814C144.529 51.902 145.4 52.7857 145.651 53.5049" stroke="black" stroke-width="2" stroke-linecap="round"/>
<path d="M146.933 51.902C148.055 52.0623 148.215 53.1843 148.215 53.5048" stroke="black" stroke-width="2" stroke-linecap="round"/>
<circle cx="144.048" cy="61.1987" r="0.961723" fill="black"/>
<circle cx="151.422" cy="61.1987" r="0.961723" fill="black"/>
<ellipse cx="149.338" cy="66.0073" rx="4.32775" ry="1.60287" fill="black"/>
<defs>
<filter id="filter0_d_0_1" x="0" y="0" width="191" height="106" filterUnits="userSpaceOnUse" color-interpolation-filters="sRGB">
<feFlood flood-opacity="0" result="BackgroundImageFix"/>
<feColorMatrix in="SourceAlpha" type="matrix" values="0 0 0 0 0 0 0 0 0 0 0 0 0 0 0 0 0 0 127 0" result="hardAlpha"/>
<feOffset/>
<feGaussianBlur stdDeviation="4.5"/>
<feComposite in2="hardAlpha" operator="out"/>
<feColorMatrix type="matrix" values="0 0 0 0 0 0 0 0 0 0 0 0 0 0 0 0 0 0 0.09 0"/>
<feBlend mode="normal" in2="BackgroundImageFix" result="effect1_dropShadow_0_1"/>
<feBlend mode="normal" in="SourceGraphic" in2="effect1_dropShadow_0_1" result="shape"/>
</filter>
</defs>
</svg>
